<svg width="67" height="67" viewBox="0 0 67 67" fill="none" xmlns="http://www.w3.org/2000/svg">
<path fill-rule="evenodd" clip-rule="evenodd" d="M33.5 33.5C33.5 28.8746 37.2496 25.125 41.875 25.125C46.5004 25.125 50.25 28.8746 50.25 33.5C50.25 38.1254 46.5004 41.875 41.875 41.875C37.2496 41.875 33.5 38.1254 33.5 33.5Z" fill="#1ABCFE"/>
<path fill-rule="evenodd" clip-rule="evenodd" d="M16.75 50.25C16.75 45.6246 20.4996 41.875 25.125 41.875H33.5V50.25C33.5 54.8754 29.7504 58.625 25.125 58.625C20.4996 58.625 16.75 54.8754 16.75 50.25Z" fill="#0ACF83"/>
<path fill-rule="evenodd" clip-rule="evenodd" d="M33.5 8.375V25.125H41.875C46.5004 25.125 50.25 21.3754 50.25 16.75C50.25 12.1246 46.5004 8.375 41.875 8.375H33.5Z" fill="#FF7262"/>
<path fill-rule="evenodd" clip-rule="evenodd" d="M16.75 16.75C16.75 21.3754 20.4996 25.125 25.125 25.125H33.5V8.375H25.125C20.4996 8.375 16.75 12.1246 16.75 16.75Z" fill="#F24E1E"/>
<path fill-rule="evenodd" clip-rule="evenodd" d="M16.75 33.5C16.75 38.1254 20.4996 41.875 25.125 41.875H33.5V25.125H25.125C20.4996 25.125 16.75 28.8746 16.75 33.5Z" fill="#A259FF"/>
</svg>
