<svg width="32" height="32" viewBox="0 0 32 32" fill="none" xmlns="http://www.w3.org/2000/svg">
<path d="M15.9983 2.00073C8.26704 2.00073 1.99829 8.43198 1.99829 16.357C1.99829 22.7007 6.01079 28.0757 11.5733 29.9757C11.6513 29.9927 11.731 30.0011 11.8108 30.0007C12.3295 30.0007 12.5295 29.6195 12.5295 29.2882C12.5295 28.9445 12.517 28.0445 12.5108 26.8445C12.0477 26.953 11.5739 27.0096 11.0983 27.0132C8.40454 27.0132 7.79204 24.9195 7.79204 24.9195C7.15454 23.2632 6.23579 22.8195 6.23579 22.8195C5.01704 21.9632 6.22954 21.9382 6.32329 21.9382H6.32954C7.73579 22.0632 8.47329 23.4257 8.47329 23.4257C9.17329 24.6507 10.1108 24.9945 10.9483 24.9945C11.5021 24.9834 12.0473 24.8556 12.5483 24.6195C12.6733 23.6945 13.0358 23.0632 13.4358 22.7007C10.3295 22.3382 7.06079 21.107 7.06079 15.607C7.06079 14.0382 7.60454 12.757 8.49829 11.757C8.35454 11.3945 7.87329 9.93198 8.63579 7.95698C8.73807 7.93251 8.84319 7.922 8.94829 7.92573C9.45454 7.92573 10.5983 8.11948 12.4858 9.43198C14.7793 8.7903 17.2048 8.7903 19.4983 9.43198C21.3858 8.11948 22.5295 7.92573 23.0358 7.92573C23.1409 7.922 23.246 7.93251 23.3483 7.95698C24.1108 9.93198 23.6295 11.3945 23.4858 11.757C24.3795 12.7632 24.9233 14.0445 24.9233 15.607C24.9233 21.1195 21.6483 22.332 18.5295 22.6882C19.0295 23.132 19.4795 24.007 19.4795 25.3445C19.4795 27.2632 19.4608 28.8132 19.4608 29.282C19.4608 29.6195 19.6545 30.0007 20.1733 30.0007C20.2573 30.0011 20.3411 29.9927 20.4233 29.9757C25.992 28.0757 29.9983 22.6945 29.9983 16.357C29.9983 8.43198 23.7295 2.00073 15.9983 2.00073Z" fill="#fff"/>
</svg>
