<svg width="67" height="63" viewBox="0 0 67 63" fill="none" xmlns="http://www.w3.org/2000/svg">
<path d="M4.20554 3.91339V58.2954H62.794V3.91339H4.20554ZM35.5922 46.1566C35.5922 51.4503 32.2234 54.0311 27.3467 54.0311C22.9421 54.0311 20.3854 51.914 19.088 49.3588L23.5711 46.84C24.4356 48.2639 25.0921 49.4681 26.9792 49.4681C28.5485 49.4681 29.838 48.8113 29.838 46.2561V29.1622H35.5922V46.1566ZM48.585 53.9097C43.4729 53.9097 40.1694 51.7684 38.5569 48.8113L43.0465 46.3994C44.2235 48.1886 45.7602 49.3807 48.4738 49.3807C50.7546 49.3807 52.0793 48.4435 52.0793 46.9832C52.0793 45.2316 50.7153 44.6113 48.1979 43.5844L46.8221 43.0357C42.8491 41.4673 40.2152 39.496 40.2152 35.3336C40.2152 31.5014 43.3604 28.7021 48.2763 28.7021C51.7772 28.7021 54.2921 29.7121 56.1034 32.6691L51.8086 35.2316C50.8644 33.6621 49.847 33.0466 48.2698 33.0466C46.6573 33.0466 45.6346 33.9959 45.6346 35.2316C45.6346 36.7648 46.6573 37.3851 49.0165 38.3343L50.3923 38.8818C55.0729 40.7439 57.708 42.6448 57.708 46.9128C57.7093 51.5135 53.8161 53.9097 48.585 53.9097Z" fill="#FFC531"/>
</svg>
