<svg width="180" height="41" viewBox="0 0 266 41" fill="none" xmlns="http://www.w3.org/2000/svg">
<path d="M62.656 16.904H61.864L61.84 17.024H64.12L63.976 17.504H62.056L61.936 17.984H61.84L61.768 18.224H59.944L59.8 18.704H58.696L58.624 18.944H61.408L61.384 19.064H61.528L61.384 19.544H61.048L60.952 19.904H61.384L61.312 20.144H61.408L61.336 20.384H60.688L60.592 20.744H61.048L60.976 20.984H60.328L60.28 21.224H59.752L59.656 21.584H59.416L59.344 21.824H60.472L60.4 22.064H61.192L61.144 22.184H58.816L58.672 22.664H59.632L59.536 23.024H58.528L58.384 23.504H59.68L59.56 23.864H59.776L59.752 23.984H59.896L59.848 24.104H59.944L59.92 24.224H59.752L59.68 24.464H59.44L59.344 24.824H59.464L59.392 25.064H59.44L59.32 25.424H59.344L59.248 25.784H59.224L59.104 26.144H58.792L58.72 26.384H58.816L58.792 26.504H58.984L58.84 26.984H59.032L58.96 27.224H58.84L58.744 27.584H58.936L58.864 27.824H58.624L58.576 28.064H58.048L58 28.208L57.976 28.304H59.248C59.168 28.48 59.048 28.64 58.888 28.784H55.816C55.768 28.832 55.704 28.872 55.624 28.904H58.264C58.2 28.92 58.128 28.944 58.048 28.976C57.968 28.992 57.88 29 57.784 29H52.312C52.216 29 52.128 28.992 52.048 28.976C51.984 28.944 51.912 28.92 51.832 28.904H49.168C49.104 28.872 49.04 28.832 48.976 28.784H52.024C51.864 28.64 51.744 28.48 51.664 28.304H50.416C50.4 28.288 50.392 28.272 50.392 28.256C50.392 28.24 50.384 28.224 50.368 28.208L50.32 28.064H50.848L50.776 27.824H51.016L50.944 27.584H50.728L50.632 27.224H50.728L50.656 26.984H50.488L50.344 26.504H50.152L50.128 26.384H50.032L49.96 26.144H50.272L50.152 25.784H50.176L50.08 25.424H50.056L49.96 25.064H49.912L49.84 24.824H49.72L49.624 24.464H49.84L49.768 24.224H49.936L49.912 24.104H49.816L49.768 23.984H49.624L49.6 23.864H49.384L49.264 23.504H47.968L47.824 23.024H48.832L48.736 22.664H47.776L47.632 22.184H49.96L49.936 22.064H49.168L49.096 21.824H49.84L49.768 21.584H48.736L48.64 21.224H48.976L48.904 20.984H48.76L48.688 20.744H49.072L48.976 20.384H48.472L48.4 20.144H49.312L49.24 19.904H48.328L48.232 19.544H48.496L48.352 19.064H47.512L47.464 18.944H47.584L47.512 18.704H48.544L48.4 18.224H47.752L47.68 17.984H47.872L47.752 17.504H49.192L49.048 17.024H46.816L46.768 16.904H51.76L51.688 16.664H49L48.88 16.304H50.584L50.44 15.824H50.248L50.104 15.344H49.264L49.192 15.104H46.864L46.72 14.624H46.888L46.816 14.384L46.792 14.264H46.672L46.624 14.144L46.48 13.664H46.36L46.312 13.544H46.12L46.024 13.184H44.272L44.224 13.064H45.592L45.544 12.896C45.544 12.88 45.544 12.872 45.544 12.872C45.528 12.856 45.52 12.84 45.52 12.824H45.808V12.728C45.808 12.584 45.864 12.456 45.976 12.344H44.92C45.016 12.248 45.136 12.2 45.28 12.2H49.744C49.984 12.2 50.176 12.248 50.32 12.344H51.376C51.568 12.456 51.72 12.616 51.832 12.824H51.52L51.592 12.992L51.616 13.064H50.248L50.272 13.184H52.024L52.12 13.544H52.312L52.336 13.664H52.48L52.6 14.144L52.624 14.264H52.768L52.792 14.384H52.768L52.84 14.624H52.696L52.816 15.104H55.144L55.192 15.344H56.152L56.224 15.104H56.344L56.464 14.624H56.536L56.584 14.384H56.656L56.68 14.264H56.056L56.08 14.144H56.68L56.8 13.664H56.344L56.368 13.544H54.52L54.616 13.184H55.456L55.48 13.064H53.896L53.92 12.992C53.936 12.96 53.944 12.928 53.944 12.896C53.944 12.864 53.952 12.84 53.968 12.824H56.848C56.928 12.616 57.072 12.456 57.28 12.344H58.168C58.344 12.248 58.544 12.2 58.768 12.2H63.232C63.376 12.2 63.496 12.248 63.592 12.344H62.68C62.792 12.456 62.848 12.584 62.848 12.728V12.824H59.992C59.976 12.84 59.968 12.864 59.968 12.896L59.92 13.064H61.504L61.48 13.184H60.616L60.52 13.544H62.368L62.344 13.664H62.776L62.632 14.144H62.056L62.032 14.264H62.656L62.632 14.384H62.56L62.488 14.624H62.416L62.272 15.104H62.152L62.08 15.344H61.912L61.792 15.824H64.768L64.624 16.304H62.968L62.848 16.664H62.704L62.656 16.904ZM54.784 16.304L54.856 16.664H56.968L57.064 16.304H58.744L58.864 15.824H56.344L56.464 16.304H54.784ZM58.12 17.504L58.24 17.024H55.984L56.008 16.904H52.648L52.672 17.024H54.904L55.048 17.504H53.584L53.704 17.984H53.512L53.584 18.224H55.96L56.008 17.984H56.104L56.224 17.504H58.12ZM55.744 19.064H55.6L55.624 18.944H53.272L53.296 19.064H54.136L54.256 19.544H53.992L54.088 19.904H54.976L55.048 20.144H54.136L54.208 20.384H54.712L54.784 20.744H54.4L54.472 20.984H54.592L54.616 21.056L54.64 20.984H55.264L55.336 20.744H54.88L54.952 20.384H55.624L55.672 20.144H55.576L55.624 19.904H55.216L55.288 19.544H55.624L55.744 19.064ZM66.3756 14.504V14.024H66.3516V13.664H66.5676V13.544H66.7116V13.064H66.5916V12.704H66.6156V12.224H66.7116V11.864H66.6636V11.648C66.6636 11.52 66.6796 11.432 66.7116 11.384H66.9516L67.0236 11.264H66.8316C66.9596 11.088 67.1356 11 67.3596 11H71.4156C71.6396 11 71.8156 11.088 71.9436 11.264H72.1356L72.2076 11.384H71.9436C71.9916 11.448 72.0156 11.536 72.0156 11.648V11.864H72.0636V12.224H71.9676V12.704H71.9436V13.064H72.0636V13.544H71.9196V13.664H71.7036V14.024H71.7276V14.504H71.8956V14.552C71.8956 14.696 71.8396 14.84 71.7276 14.984H71.4396C71.3276 15.128 71.1676 15.2 70.9596 15.2H66.9036C66.6956 15.2 66.5276 15.128 66.3996 14.984H66.6876C66.5916 14.856 66.5436 14.712 66.5436 14.552V14.504H66.3756ZM71.3196 19.544H73.5756V20.024H72.7596V20.264H71.8476V20.744H72.5436V20.864H72.0876V21.104H72.1596V21.344H72.2796V21.704H71.0796V22.064H71.8716V22.424H71.7276V22.664H72.1356V23.024H72.2316V23.384H72.0876V23.744H72.2076V23.984H72.0876V24.464H72.0396V24.824H71.9436V25.184H72.0396V25.424H72.0876V25.904H71.9916V26.144H72.1116V26.384H72.0876V26.744H72.1836V27.104H72.2556V27.224H72.0876V27.704H71.7516V28.184H71.9916V28.352C71.9916 28.432 71.9836 28.496 71.9676 28.544H71.7996C71.7516 28.704 71.6636 28.824 71.5356 28.904H72.0156C71.9356 28.968 71.8156 29 71.6556 29H67.3596C67.2156 29 67.1036 28.968 67.0236 28.904H66.5436C66.3996 28.824 66.3036 28.704 66.2556 28.544H66.4236C66.4076 28.496 66.3996 28.432 66.3996 28.352V28.184H66.1596V27.704H66.4956V27.224H66.6636V27.104H66.5916V26.744H66.4956V26.384H66.5196V26.144H66.3996V25.904H66.4956V25.424H66.4476V25.184H66.3516V24.824H66.4476V24.464H66.4956V23.984H66.6156V23.744H66.4956V23.384H66.6396V23.024H66.5436V22.664H66.1356V22.424H66.2796V22.064H65.4876V21.704H66.6876V21.344H66.5676V21.104H66.4956V20.864H66.9516V20.744H66.2556V20.264H67.1676V20.024H67.9836V19.544H65.7276V19.304H67.7196V18.824H66.9996V18.464H67.4316V17.984H66.6636V17.864H66.4956V17.624H66.3516V17.264H66.5196V17.168C66.5196 16.992 66.5596 16.864 66.6396 16.784H66.6636C66.7916 16.608 66.9676 16.52 67.1916 16.52H71.4876C71.7116 16.52 71.8876 16.608 72.0156 16.784H71.9676C72.0636 16.88 72.1116 17.008 72.1116 17.168V17.264H71.9436V17.624H72.0876V17.864H72.2556V17.984H73.0236V18.464H72.5916V18.824H73.3116V19.304H71.3196V19.544ZM88.0534 26.264H87.4774V26.504H88.3414V26.744H89.1334V27.104H88.5814V27.464H90.1894V27.824H87.5734V28.304H87.7654V28.352C87.7654 28.384 87.7574 28.408 87.7414 28.424C87.7094 28.584 87.6534 28.704 87.5734 28.784H87.3814C87.3174 28.848 87.2694 28.888 87.2374 28.904H88.0534C87.9734 28.968 87.8614 29 87.7174 29H85.0054C84.7334 29 84.4614 28.992 84.1894 28.976C83.9334 28.96 83.6854 28.936 83.4454 28.904H82.6294C82.5174 28.888 82.4054 28.872 82.2934 28.856C82.1814 28.824 82.0614 28.8 81.9334 28.784H82.1254C81.9174 28.736 81.7174 28.68 81.5254 28.616C81.3494 28.552 81.1734 28.488 80.9974 28.424H81.0214C80.9734 28.392 80.9254 28.368 80.8774 28.352C80.8294 28.336 80.7894 28.32 80.7574 28.304H80.5654C80.4374 28.224 80.3094 28.152 80.1814 28.088C80.0534 28.008 79.9254 27.92 79.7974 27.824H82.4374C82.3734 27.76 82.3014 27.704 82.2214 27.656C82.1574 27.592 82.0934 27.528 82.0294 27.464H80.4214L80.1094 27.104H80.6854C80.6374 27.04 80.5894 26.984 80.5414 26.936C80.5094 26.872 80.4774 26.808 80.4454 26.744H79.6534L79.5094 26.504H78.6454C78.6294 26.472 78.6134 26.432 78.5974 26.384C78.5814 26.336 78.5574 26.296 78.5254 26.264H79.1254L78.9814 25.904H79.4614L79.3894 25.664C79.3574 25.568 79.3414 25.488 79.3414 25.424H81.2374C81.2214 25.36 81.2054 25.304 81.1894 25.256C81.1894 25.192 81.1894 25.128 81.1894 25.064H78.4534C78.4534 25.032 78.4454 25.008 78.4294 24.992C78.4294 24.976 78.4294 24.96 78.4294 24.944H78.3574C78.3574 24.88 78.3494 24.824 78.3334 24.776C78.3334 24.712 78.3334 24.648 78.3334 24.584H78.2614C78.2614 24.52 78.2534 24.464 78.2374 24.416C78.2374 24.352 78.2374 24.288 78.2374 24.224H78.5734V24.104H78.3574V23.864H78.1654V23.384H78.4534V22.904H78.1654V22.544H78.3814V22.304H78.4054V21.944H78.5254V21.104H78.5734V20.744H78.6934V20.72H76.7974C76.5574 20.72 76.3654 20.608 76.2214 20.384H76.5814C76.5334 20.288 76.5094 20.184 76.5094 20.072V19.904H75.7414V19.544H75.9094V19.064H75.7894V18.824H75.8374V18.584H76.1974V18.464H75.5974V18.104H76.3174V17.744H76.1734V17.504H76.0054V17.144H75.8614V17.024H75.7894C75.8374 16.784 75.9894 16.624 76.2454 16.544H76.3894C76.4374 16.528 76.5014 16.52 76.5814 16.52H78.4774V16.424H78.5734V16.064H78.3814V15.824H78.3574V15.464H78.2614V15.344H77.6854V15.104H77.1334V14.984H77.3254V14.864H77.8774V14.384H78.0934V14.144H77.3254V13.904H78.5014V13.544H78.3814V13.424H78.1174V13.184H78.3574V13.064H78.1174V12.704H78.3334V12.608C78.3334 12.528 78.3494 12.44 78.3814 12.344H78.6934C78.8054 12.088 79.0054 11.96 79.2934 11.96H83.4934C83.7494 11.96 83.9494 12.088 84.0934 12.344H83.7814C83.8134 12.44 83.8294 12.528 83.8294 12.608V12.704H83.6134V13.064H83.8534V13.184H83.6134V13.424H83.8774V13.544H83.9974V13.904H82.8214V14.144H83.5894V14.384H83.3734V14.864H82.8214V14.984H82.6294V15.104H83.1814V15.344H83.7574V15.464H83.8534V15.824H83.8774V16.064H84.0694V16.424H83.9734V16.52H86.9974C87.0774 16.52 87.1334 16.528 87.1654 16.544H87.0214C87.2454 16.624 87.3974 16.784 87.4774 17.024H87.5494C87.5494 17.04 87.5494 17.056 87.5494 17.072C87.5654 17.088 87.5734 17.112 87.5734 17.144H87.7174V17.504H87.8854V17.744H88.0294V18.104H87.3094V18.464H87.9094V18.584H87.5494V18.824H87.5014V19.064H87.6214V19.544H87.4534V19.904H88.2214V20.072C88.2214 20.136 88.2134 20.192 88.1974 20.24C88.1814 20.288 88.1574 20.336 88.1254 20.384H87.7894C87.6454 20.608 87.4534 20.72 87.2134 20.72H84.1894V20.744H84.0694V21.104H84.0214V21.944H83.9014V22.304H83.8774V22.544H83.6614V22.904H83.9494V23.384H83.6614C83.6614 23.464 83.6614 23.544 83.6614 23.624C83.6774 23.704 83.6934 23.784 83.7094 23.864H83.9254C83.9574 23.96 83.9894 24.04 84.0214 24.104H84.2134L84.2854 24.224H83.9494C84.1254 24.448 84.3974 24.56 84.7654 24.56H86.9494C87.0294 24.56 87.0854 24.568 87.1174 24.584H87.1894C87.3814 24.632 87.5174 24.752 87.5974 24.944H87.6694C87.6694 24.96 87.6694 24.976 87.6694 24.992C87.6854 25.008 87.6934 25.032 87.6934 25.064H90.4294C90.4294 25.08 90.4294 25.104 90.4294 25.136C90.4454 25.152 90.4534 25.176 90.4534 25.208V25.424H88.5334V25.904H88.0534V26.264ZM107.403 22.064C107.419 22.144 107.427 22.224 107.427 22.304C107.427 22.384 107.427 22.464 107.427 22.544H105.723V22.784H104.739V23.024H105.675V23.144H104.595V23.504H103.995V23.624H105.339C105.339 23.672 105.331 23.712 105.315 23.744H105.243V23.864H105.459V23.888C105.459 23.952 105.451 24.024 105.435 24.104C105.435 24.184 105.427 24.264 105.411 24.344H105.243L105.171 24.824H105.531C105.531 24.888 105.515 24.968 105.483 25.064H105.411C105.395 25.128 105.379 25.192 105.363 25.256C105.347 25.304 105.331 25.36 105.315 25.424H105.507C105.491 25.504 105.467 25.584 105.435 25.664C105.403 25.744 105.371 25.824 105.339 25.904H104.979L104.883 26.144H104.931C104.899 26.208 104.883 26.248 104.883 26.264H104.787C104.723 26.424 104.635 26.584 104.523 26.744H104.571C104.555 26.776 104.531 26.816 104.499 26.864C104.467 26.912 104.435 26.952 104.403 26.984H104.379L104.091 27.344C104.075 27.36 104.059 27.376 104.043 27.392C104.027 27.408 104.003 27.432 103.971 27.464H103.851C103.787 27.528 103.723 27.592 103.659 27.656C103.595 27.704 103.523 27.76 103.443 27.824H102.723L102.219 28.184H102.315C102.283 28.2 102.251 28.216 102.219 28.232C102.187 28.248 102.155 28.272 102.123 28.304H101.955C101.923 28.32 101.883 28.336 101.835 28.352C101.787 28.368 101.747 28.392 101.715 28.424H103.011C102.931 28.472 102.843 28.52 102.747 28.568C102.651 28.6 102.555 28.632 102.459 28.664H102.051C101.939 28.712 101.819 28.76 101.691 28.808C101.563 28.84 101.435 28.872 101.307 28.904H101.403C101.211 28.952 101.011 28.992 100.803 29.024C100.595 29.072 100.379 29.112 100.155 29.144H100.899C100.643 29.176 100.379 29.2 100.107 29.216C99.8349 29.232 99.5549 29.24 99.2669 29.24C98.9629 29.24 98.6749 29.232 98.4029 29.216C98.1469 29.2 97.8829 29.176 97.6109 29.144H96.8429C96.6349 29.112 96.4189 29.072 96.1949 29.024C95.9869 28.992 95.7869 28.952 95.5949 28.904H95.5229C95.3949 28.872 95.2669 28.84 95.1389 28.808C95.0269 28.76 94.9069 28.712 94.7789 28.664H95.1629C95.0829 28.632 94.9949 28.6 94.8989 28.568C94.8029 28.52 94.7149 28.472 94.6349 28.424H93.3389L93.1229 28.304H93.2909L93.0749 28.184H92.9789C92.7869 28.056 92.6189 27.936 92.4749 27.824H93.1949C93.1309 27.76 93.0669 27.704 93.0029 27.656C92.9389 27.592 92.8749 27.528 92.8109 27.464H92.9309C92.9149 27.432 92.8989 27.408 92.8829 27.392C92.8669 27.376 92.8429 27.36 92.8109 27.344L92.5229 26.984H92.5469L92.3789 26.744H92.3309C92.2189 26.584 92.1309 26.424 92.0669 26.264H92.1389C92.1069 26.2 92.0909 26.16 92.0909 26.144H92.0189L91.9229 25.904H92.2829C92.2669 25.824 92.2429 25.744 92.2109 25.664C92.1789 25.584 92.1469 25.504 92.1149 25.424H91.9229C91.9069 25.36 91.8909 25.304 91.8749 25.256C91.8589 25.192 91.8429 25.128 91.8269 25.064H91.6829L91.6109 24.824H91.3709L91.2989 24.344H91.5389C91.5229 24.264 91.5069 24.184 91.4909 24.104C91.4909 24.024 91.4909 23.952 91.4909 23.888V23.864H91.0589V23.744H90.9389C90.9389 23.712 90.9309 23.688 90.9149 23.672C90.9149 23.656 90.9149 23.64 90.9149 23.624H92.2589C92.2589 23.576 92.2509 23.536 92.2349 23.504H90.8909V23.144H91.4669V23.024H91.7549V22.784H92.2589V22.544H90.7949C90.7949 22.464 90.7949 22.384 90.7949 22.304C90.7949 22.224 90.8029 22.144 90.8189 22.064H90.5069V21.824H92.8829C92.8989 21.776 92.9069 21.712 92.9069 21.632V21.464H92.2589C92.2589 21.4 92.2589 21.344 92.2589 21.296C92.2749 21.232 92.2829 21.168 92.2829 21.104H92.5229L92.5949 20.624H91.8029C91.8189 20.56 91.8349 20.504 91.8509 20.456C91.8669 20.392 91.8829 20.328 91.8989 20.264H91.7309C91.7629 20.184 91.7869 20.104 91.8029 20.024C91.8349 19.928 91.8669 19.848 91.8989 19.784H91.9229C91.9389 19.752 91.9549 19.712 91.9709 19.664C91.9869 19.616 92.0029 19.576 92.0189 19.544H91.9949C91.9949 19.528 92.0109 19.488 92.0429 19.424H92.1629C92.2269 19.264 92.3149 19.104 92.4269 18.944H91.9469L92.0909 18.704H92.9789C92.9949 18.672 93.0269 18.632 93.0749 18.584H91.3229C91.3549 18.52 91.3949 18.464 91.4429 18.416C91.5069 18.352 91.5629 18.288 91.6109 18.224H92.1629C92.2429 18.144 92.3229 18.064 92.4029 17.984C92.4989 17.888 92.5869 17.808 92.6669 17.744H93.7709C93.9149 17.616 94.0829 17.496 94.2749 17.384H94.7309C94.7949 17.336 94.8589 17.296 94.9229 17.264C95.0029 17.216 95.0749 17.176 95.1389 17.144H93.7229C93.8669 17.064 94.0429 16.984 94.2509 16.904H94.8989C95.2669 16.76 95.6509 16.64 96.0509 16.544H95.3309C96.1149 16.368 96.9469 16.28 97.8269 16.28C98.7069 16.28 99.5389 16.368 100.323 16.544H101.067C101.467 16.64 101.843 16.76 102.195 16.904H101.523C101.731 16.984 101.907 17.064 102.051 17.144H103.467C103.547 17.176 103.619 17.216 103.683 17.264C103.763 17.296 103.835 17.336 103.899 17.384H103.443L103.947 17.744H102.843C102.939 17.808 103.027 17.888 103.107 17.984C103.203 18.064 103.291 18.144 103.371 18.224H102.819C102.867 18.288 102.915 18.352 102.963 18.416C103.027 18.464 103.075 18.52 103.107 18.584H104.883L104.955 18.704H104.091L104.235 18.944H104.715C104.827 19.104 104.915 19.264 104.979 19.424H104.859C104.891 19.488 104.907 19.528 104.907 19.544H104.955L105.051 19.784H105.027C105.059 19.848 105.091 19.928 105.123 20.024C105.155 20.104 105.179 20.184 105.195 20.264H105.435L105.507 20.624H105.363C105.395 20.688 105.411 20.768 105.411 20.864C105.427 20.944 105.443 21.024 105.459 21.104H105.651C105.667 21.168 105.675 21.232 105.675 21.296C105.675 21.344 105.683 21.4 105.699 21.464H104.763V21.632C104.763 21.712 104.771 21.776 104.787 21.824H104.307V22.064H107.403ZM98.1869 21.104C98.1709 21.168 98.1549 21.232 98.1389 21.296C98.1389 21.344 98.1389 21.4 98.1389 21.464H98.8109C98.7949 21.512 98.7869 21.56 98.7869 21.608C98.7869 21.656 98.7869 21.704 98.7869 21.752V21.824H98.8829V21.752C98.8829 21.704 98.8749 21.656 98.8589 21.608C98.8589 21.56 98.8589 21.512 98.8589 21.464H99.7949C99.7949 21.4 99.7869 21.344 99.7709 21.296C99.7709 21.232 99.7709 21.168 99.7709 21.104H99.5789C99.5629 21.008 99.5389 20.92 99.5069 20.84C99.4909 20.76 99.4669 20.688 99.4349 20.624H99.6029C99.5389 20.48 99.4429 20.36 99.3149 20.264H99.0749C98.9149 20.168 98.7069 20.12 98.4509 20.12C98.1949 20.12 97.9949 20.168 97.8509 20.264H98.0189C97.9549 20.312 97.8989 20.368 97.8509 20.432C97.8029 20.48 97.7629 20.544 97.7309 20.624H98.5229C98.5069 20.688 98.4829 20.76 98.4509 20.84C98.4349 20.92 98.4189 21.008 98.4029 21.104H98.1869ZM99.8189 22.544H101.523V22.064H98.4269C98.4109 22 98.4029 21.92 98.4029 21.824H96.4109C96.4109 21.92 96.4029 22 96.3869 22.064H96.6989V22.544H98.1629V22.784H97.6349V23.024H97.3469V23.144H96.7709C96.7709 23.208 96.7709 23.272 96.7709 23.336C96.7869 23.384 96.7949 23.44 96.7949 23.504H98.6909V23.144H99.7709V23.024H98.8349V22.784H99.8189V22.544ZM99.4349 23.744V23.624H96.8189V23.744H96.9389V23.768C96.9389 23.784 96.9389 23.8 96.9389 23.816C96.9549 23.832 96.9629 23.848 96.9629 23.864H97.3709C97.3869 23.944 97.3949 24.024 97.3949 24.104C97.3949 24.184 97.4029 24.264 97.4189 24.344H97.1789C97.2109 24.552 97.2429 24.712 97.2749 24.824H97.5389C97.5709 24.92 97.6029 25 97.6349 25.064H97.8029C97.9469 25.288 98.2189 25.4 98.6189 25.4C99.0189 25.4 99.2909 25.288 99.4349 25.064H99.5309C99.5469 25.032 99.5629 25 99.5789 24.968C99.5949 24.92 99.6109 24.872 99.6269 24.824H99.2669C99.2829 24.744 99.2989 24.672 99.3149 24.608C99.3309 24.528 99.3469 24.44 99.3629 24.344H99.5309C99.5469 24.264 99.5549 24.184 99.5549 24.104C99.5549 24.024 99.5629 23.944 99.5789 23.864H99.3629V23.744H99.4349ZM120.401 18.344H121.313V18.824H121.265V19.304H120.425V19.664H120.641V20.144H120.449V20.624H120.017V20.744H118.505V20.912C118.505 20.944 118.497 20.976 118.481 21.008C118.481 21.04 118.473 21.072 118.457 21.104H119.009C118.929 21.408 118.721 21.56 118.385 21.56H115.289C115.225 21.56 115.161 21.56 115.097 21.56C115.049 21.56 115.001 21.568 114.953 21.584H115.913C115.833 21.6 115.761 21.616 115.697 21.632C115.633 21.648 115.561 21.672 115.481 21.704H116.273C116.225 21.72 116.153 21.76 116.057 21.824H116.513L116.369 21.944H116.489C116.393 22.04 116.321 22.16 116.273 22.304H115.553C115.521 22.368 115.505 22.408 115.505 22.424H115.265C115.265 22.44 115.257 22.456 115.241 22.472C115.241 22.488 115.241 22.512 115.241 22.544H115.529C115.513 22.576 115.505 22.616 115.505 22.664C115.505 22.696 115.497 22.736 115.481 22.784H115.625V23.144H115.289V23.384H115.625V23.744H115.985V24.224H115.457V24.344H115.073V24.464H116.513V24.824H115.793V25.064H116.033V25.304H115.481V25.784H115.169V25.904H114.857V26.264H115.673V26.624H115.241V26.984H115.673V27.104H115.625V27.344H115.097V27.584H115.481V28.064H115.577V28.424H115.481C115.449 28.648 115.345 28.808 115.169 28.904H114.953C114.873 28.968 114.761 29 114.617 29H110.057C109.913 29 109.801 28.968 109.721 28.904H109.937C109.761 28.808 109.657 28.648 109.625 28.424H109.721V28.064H109.625V27.584H109.241V27.344H109.769V27.104H109.817V26.984H109.385V26.624H109.817V26.264H109.001V25.904H109.313V25.784H109.625V25.304H110.177V25.064H109.937V24.824H110.657V24.464H109.217V24.344H109.601V24.224H110.129V23.744H109.769V23.384H109.433V23.144H109.769V22.784H109.625V22.544H109.337V22.424H109.577V22.304H110.297V21.944H110.177V21.824H109.745V21.704H108.953V21.584H107.993V21.104H107.465V20.744H108.977V20.624H109.409V20.144H109.601V19.664H109.385V19.304H110.225V18.824H110.273V18.344H109.361V17.984H110.129V17.504H109.385V17.384H109.625V17.168C109.625 17.088 109.641 17 109.673 16.904H109.649C109.761 16.648 109.961 16.52 110.249 16.52H114.449C114.721 16.52 114.913 16.648 115.025 16.904H115.073C115.105 17 115.121 17.088 115.121 17.168V17.384H114.881V17.504H115.625V17.576L115.721 17.504H115.769C115.801 17.472 115.833 17.448 115.865 17.432C115.897 17.416 115.921 17.4 115.937 17.384H115.985C116.305 17.176 116.617 17.016 116.921 16.904H116.969C117.289 16.776 117.609 16.68 117.929 16.616C118.249 16.552 118.585 16.52 118.937 16.52H120.089C120.377 16.52 120.577 16.648 120.689 16.904H120.641C120.673 17 120.689 17.088 120.689 17.168V17.384H120.665V17.504H120.617V17.984H120.401V18.344ZM146.454 21.344H149.598V21.824H148.662V22.304H147.318V22.64C147.318 22.704 147.31 22.768 147.294 22.832C147.294 22.896 147.294 22.96 147.294 23.024H147.366C147.366 23.088 147.358 23.152 147.342 23.216C147.342 23.264 147.342 23.32 147.342 23.384H147.126C147.126 23.416 147.126 23.456 147.126 23.504C147.126 23.552 147.118 23.592 147.102 23.624H144.894C144.878 23.656 144.87 23.696 144.87 23.744C144.87 23.792 144.862 23.832 144.846 23.864H144.87L144.798 24.224H146.526C146.51 24.288 146.494 24.352 146.478 24.416C146.462 24.464 146.446 24.52 146.43 24.584H146.694C146.678 24.664 146.654 24.744 146.622 24.824C146.59 24.904 146.558 24.984 146.526 25.064H146.838L146.742 25.304H146.382C146.35 25.384 146.31 25.464 146.262 25.544C146.23 25.624 146.19 25.704 146.142 25.784H147.102L146.958 26.024H147.15C147.118 26.056 147.086 26.096 147.054 26.144C147.038 26.192 147.014 26.232 146.982 26.264H145.614C145.598 26.28 145.582 26.296 145.566 26.312C145.55 26.328 145.534 26.352 145.518 26.384H147.078C147.014 26.48 146.95 26.56 146.886 26.624H146.502C146.454 26.688 146.398 26.752 146.334 26.816C146.286 26.864 146.23 26.92 146.166 26.984H147.006L146.622 27.344H146.358L146.214 27.464H145.494C145.35 27.576 145.182 27.696 144.99 27.824H144.846C144.75 27.888 144.646 27.952 144.534 28.016C144.438 28.064 144.334 28.12 144.222 28.184H143.766L143.502 28.304H142.878C142.574 28.448 142.278 28.568 141.99 28.664H141.39C140.958 28.808 140.502 28.928 140.022 29.024H139.566C139.438 29.04 139.302 29.056 139.158 29.072C139.03 29.104 138.902 29.128 138.774 29.144H139.422C139.166 29.176 138.894 29.2 138.606 29.216C138.334 29.232 138.054 29.24 137.766 29.24C137.462 29.24 137.166 29.232 136.878 29.216C136.606 29.2 136.334 29.176 136.062 29.144H135.438C135.294 29.128 135.158 29.104 135.03 29.072C134.902 29.056 134.774 29.04 134.646 29.024H135.102C134.622 28.928 134.166 28.808 133.734 28.664H134.334C134.046 28.568 133.758 28.448 133.47 28.304H134.118C134.07 28.272 134.022 28.248 133.974 28.232C133.942 28.216 133.91 28.2 133.878 28.184H134.358C134.246 28.12 134.142 28.064 134.046 28.016C133.95 27.952 133.854 27.888 133.758 27.824H133.926L133.446 27.464H134.166L134.022 27.344H134.286L133.926 26.984H133.11C133.046 26.92 132.99 26.864 132.942 26.816C132.894 26.752 132.846 26.688 132.798 26.624H133.182C133.166 26.592 133.142 26.552 133.11 26.504C133.078 26.456 133.046 26.416 133.014 26.384H131.454L131.382 26.264H132.75L132.606 26.024H132.438L132.294 25.784H131.334L131.118 25.304H131.478C131.462 25.272 131.446 25.232 131.43 25.184C131.414 25.136 131.398 25.096 131.382 25.064H131.07C131.038 24.984 131.006 24.904 130.974 24.824C130.958 24.744 130.934 24.664 130.902 24.584H130.638C130.622 24.52 130.606 24.464 130.59 24.416C130.574 24.352 130.558 24.288 130.542 24.224H130.35C130.334 24.16 130.318 24.104 130.302 24.056C130.286 23.992 130.27 23.928 130.254 23.864H128.91C128.894 23.832 128.886 23.792 128.886 23.744C128.886 23.696 128.878 23.656 128.862 23.624H131.07C131.07 23.592 131.07 23.552 131.07 23.504C131.07 23.456 131.062 23.416 131.046 23.384H130.782C130.766 23.32 130.75 23.264 130.734 23.216C130.734 23.152 130.734 23.088 130.734 23.024H131.694C131.694 22.96 131.694 22.904 131.694 22.856C131.694 22.792 131.686 22.728 131.67 22.664H132.582V22.304H129.87V21.824H131.886C131.87 21.744 131.862 21.664 131.862 21.584C131.862 21.504 131.862 21.424 131.862 21.344H132.174V21.104H130.182V20.864H130.398V20.504H131.046V20.264H130.71V20.144H130.59V19.664H130.614V19.184H130.686V19.064H130.758V18.944H130.302V18.824H130.806V18.704H130.686C130.702 18.64 130.71 18.584 130.71 18.536C130.71 18.472 130.71 18.408 130.71 18.344H130.902V18.224H130.518C130.518 18.144 130.518 18.064 130.518 17.984C130.534 17.904 130.542 17.824 130.542 17.744H130.71C130.726 17.712 130.734 17.672 130.734 17.624C130.734 17.576 130.742 17.536 130.758 17.504H130.878L130.95 17.144H130.134L130.206 16.784H130.926C130.958 16.704 130.982 16.624 130.998 16.544C131.014 16.448 131.038 16.368 131.07 16.304H131.358L131.406 16.184H131.238C131.254 16.12 131.27 16.064 131.286 16.016C131.318 15.952 131.342 15.888 131.358 15.824H131.334C131.366 15.76 131.39 15.704 131.406 15.656C131.438 15.592 131.47 15.528 131.502 15.464H131.43L131.646 15.104H131.838L131.91 14.984H131.694L131.958 14.624H133.398C133.446 14.576 133.478 14.536 133.494 14.504H132.15L132.366 14.264H132.246L132.606 13.904C132.702 13.824 132.798 13.744 132.894 13.664C132.99 13.568 133.094 13.488 133.206 13.424H133.23C133.358 13.344 133.486 13.264 133.614 13.184C133.742 13.088 133.878 13.008 134.022 12.944C134.102 12.896 134.182 12.856 134.262 12.824C134.358 12.776 134.446 12.736 134.526 12.704H134.574C134.91 12.56 135.27 12.44 135.654 12.344H135.63C136.11 12.216 136.614 12.12 137.142 12.056C137.686 11.992 138.246 11.96 138.822 11.96C139.43 11.96 139.998 11.992 140.526 12.056C141.07 12.12 141.59 12.216 142.086 12.344C142.486 12.44 142.862 12.56 143.214 12.704H143.166C143.262 12.736 143.358 12.776 143.454 12.824C143.55 12.856 143.646 12.896 143.742 12.944C143.902 13.008 144.054 13.088 144.198 13.184C144.342 13.264 144.486 13.344 144.63 13.424H144.606C144.734 13.488 144.846 13.568 144.942 13.664C145.054 13.744 145.166 13.824 145.278 13.904H145.254C145.334 13.968 145.406 14.032 145.47 14.096C145.534 14.144 145.598 14.2 145.662 14.264H145.782L145.998 14.504H147.342L147.462 14.624H145.998C146.062 14.688 146.11 14.752 146.142 14.816C146.19 14.864 146.238 14.92 146.286 14.984H146.502L146.574 15.104H146.382C146.414 15.168 146.446 15.232 146.478 15.296C146.526 15.344 146.558 15.4 146.574 15.464H146.646C146.678 15.528 146.71 15.592 146.742 15.656C146.774 15.704 146.798 15.76 146.814 15.824H146.862C146.894 15.888 146.918 15.952 146.934 16.016C146.95 16.064 146.966 16.12 146.982 16.184H147.174C147.174 16.2 147.174 16.216 147.174 16.232C147.19 16.248 147.198 16.272 147.198 16.304H146.91C146.942 16.384 146.958 16.464 146.958 16.544C146.974 16.624 146.99 16.704 147.006 16.784H147.054C147.054 16.848 147.054 16.912 147.054 16.976C147.07 17.024 147.078 17.08 147.078 17.144H147.462C147.478 17.176 147.486 17.232 147.486 17.312C147.486 17.376 147.47 17.44 147.438 17.504H147.03C146.998 17.616 146.934 17.696 146.838 17.744H147.006C146.926 17.808 146.822 17.84 146.694 17.84H141.39C141.182 17.84 141.022 17.808 140.91 17.744H140.742C140.646 17.68 140.582 17.624 140.55 17.576L140.478 17.504H140.91C140.878 17.456 140.838 17.4 140.79 17.336C140.742 17.272 140.678 17.208 140.598 17.144H140.214C140.054 16.984 139.87 16.864 139.662 16.784H139.614C139.406 16.688 139.134 16.64 138.798 16.64C138.462 16.64 138.174 16.688 137.934 16.784H137.214C137.006 16.848 136.83 16.968 136.686 17.144H137.502C137.422 17.224 137.342 17.344 137.262 17.504H137.118C137.102 17.536 137.086 17.576 137.07 17.624C137.054 17.656 137.038 17.696 137.022 17.744H136.854C136.838 17.808 136.822 17.888 136.806 17.984C136.79 18.064 136.774 18.144 136.758 18.224H137.166C137.15 18.256 137.142 18.296 137.142 18.344H136.95V18.704H137.046V18.824H136.542V18.944H136.998V19.064H136.926V19.184H136.854V19.664H136.83V20.144H136.95V20.264H137.286V20.504H136.638V20.864H136.422V21.104H138.414V21.344H138.102C138.102 21.424 138.102 21.504 138.102 21.584C138.118 21.664 138.126 21.744 138.126 21.824H136.11V22.304H138.822V22.664H137.934C137.934 22.728 137.934 22.792 137.934 22.856C137.95 22.904 137.958 22.96 137.958 23.024H136.998C137.014 23.088 137.03 23.152 137.046 23.216C137.062 23.264 137.078 23.32 137.094 23.384H137.358C137.374 23.432 137.39 23.48 137.406 23.528C137.422 23.56 137.438 23.592 137.454 23.624H135.246C135.262 23.704 135.31 23.784 135.39 23.864H136.734C136.83 24.008 136.95 24.128 137.094 24.224H137.31C137.598 24.448 138.006 24.56 138.534 24.56C138.806 24.56 139.062 24.536 139.302 24.488C139.542 24.424 139.742 24.336 139.902 24.224H138.198C138.326 24.144 138.454 24.024 138.582 23.864H138.558C138.622 23.768 138.662 23.688 138.678 23.624H140.91L140.982 23.384H141.198C141.214 23.32 141.222 23.264 141.222 23.216C141.238 23.152 141.246 23.088 141.246 23.024H141.174L141.198 22.856V22.832H140.07C139.91 22.832 139.758 22.776 139.614 22.664C139.502 22.552 139.438 22.432 139.422 22.304H140.79C140.774 22.272 140.766 22.232 140.766 22.184V21.824H141.702V21.344H138.558V21.104H139.83V20.864H138.942V20.504H139.182V20.264H139.35V20.144H139.158V19.664H139.23V19.52C139.23 19.376 139.262 19.264 139.326 19.184H139.23C139.246 19.152 139.278 19.112 139.326 19.064H139.47C139.534 19 139.582 18.96 139.614 18.944H139.182C139.262 18.896 139.358 18.872 139.47 18.872H146.07C146.198 18.872 146.294 18.896 146.358 18.944H146.814C146.862 18.96 146.918 19 146.982 19.064H146.838C146.886 19.112 146.918 19.152 146.934 19.184H147.03C147.094 19.264 147.126 19.376 147.126 19.52V19.664H147.054V20.144H147.246V20.264H147.078V20.504H146.838V20.864H147.726V21.104H146.454V21.344ZM162.148 18.344H163.06V18.824H163.012V19.304H162.172V19.664H162.388V20.144H162.196V20.624H161.764V20.744H160.252V20.912C160.252 20.944 160.244 20.976 160.228 21.008C160.228 21.04 160.22 21.072 160.204 21.104H160.756C160.676 21.408 160.468 21.56 160.132 21.56H157.036C156.972 21.56 156.908 21.56 156.844 21.56C156.796 21.56 156.748 21.568 156.7 21.584H157.66C157.58 21.6 157.508 21.616 157.444 21.632C157.38 21.648 157.308 21.672 157.228 21.704H158.02C157.972 21.72 157.9 21.76 157.804 21.824H158.26L158.116 21.944H158.236C158.14 22.04 158.068 22.16 158.02 22.304H157.3C157.268 22.368 157.252 22.408 157.252 22.424H157.012C157.012 22.44 157.004 22.456 156.988 22.472C156.988 22.488 156.988 22.512 156.988 22.544H157.276C157.26 22.576 157.252 22.616 157.252 22.664C157.252 22.696 157.244 22.736 157.228 22.784H157.372V23.144H157.036V23.384H157.372V23.744H157.732V24.224H157.204V24.344H156.82V24.464H158.26V24.824H157.54V25.064H157.78V25.304H157.228V25.784H156.916V25.904H156.604V26.264H157.42V26.624H156.988V26.984H157.42V27.104H157.372V27.344H156.844V27.584H157.228V28.064H157.324V28.424H157.228C157.196 28.648 157.092 28.808 156.916 28.904H156.7C156.62 28.968 156.508 29 156.364 29H151.804C151.66 29 151.548 28.968 151.468 28.904H151.684C151.508 28.808 151.404 28.648 151.372 28.424H151.468V28.064H151.372V27.584H150.988V27.344H151.516V27.104H151.564V26.984H151.132V26.624H151.564V26.264H150.748V25.904H151.06V25.784H151.372V25.304H151.924V25.064H151.684V24.824H152.404V24.464H150.964V24.344H151.348V24.224H151.876V23.744H151.516V23.384H151.18V23.144H151.516V22.784H151.372V22.544H151.084V22.424H151.324V22.304H152.044V21.944H151.924V21.824H151.492V21.704H150.7V21.584H149.74V21.104H149.212V20.744H150.724V20.624H151.156V20.144H151.348V19.664H151.132V19.304H151.972V18.824H152.02V18.344H151.108V17.984H151.876V17.504H151.132V17.384H151.372V17.168C151.372 17.088 151.388 17 151.42 16.904H151.396C151.508 16.648 151.708 16.52 151.996 16.52H156.196C156.468 16.52 156.66 16.648 156.772 16.904H156.82C156.852 17 156.868 17.088 156.868 17.168V17.384H156.628V17.504H157.372V17.576L157.468 17.504H157.516C157.548 17.472 157.58 17.448 157.612 17.432C157.644 17.416 157.668 17.4 157.684 17.384H157.732C158.052 17.176 158.364 17.016 158.668 16.904H158.716C159.036 16.776 159.356 16.68 159.676 16.616C159.996 16.552 160.332 16.52 160.684 16.52H161.836C162.124 16.52 162.324 16.648 162.436 16.904H162.388C162.42 17 162.436 17.088 162.436 17.168V17.384H162.412V17.504H162.364V17.984H162.148V18.344ZM178.41 22.424V22.664H181.458V22.904H179.61V23.144H178.746V23.384H179.49V23.528C179.49 23.624 179.482 23.696 179.466 23.744H179.802C179.69 24.032 179.482 24.176 179.178 24.176H172.026V24.224H172.986V24.296C172.986 24.36 172.986 24.432 172.986 24.512C172.986 24.576 172.994 24.64 173.01 24.704H171.714C171.714 24.752 171.714 24.8 171.714 24.848C171.73 24.88 171.738 24.912 171.738 24.944H171.594C171.594 25.008 171.61 25.088 171.642 25.184H171.738C171.818 25.408 171.946 25.568 172.122 25.664H171.474C171.586 25.728 171.738 25.76 171.93 25.76C172.058 25.76 172.162 25.728 172.242 25.664H173.37C173.434 25.632 173.49 25.584 173.538 25.52C173.602 25.456 173.674 25.392 173.754 25.328L173.898 25.184H173.442C173.586 25.056 173.802 24.992 174.09 24.992H178.626C178.818 24.992 178.962 25.056 179.058 25.184H179.49C179.57 25.296 179.61 25.408 179.61 25.52C179.594 25.552 179.586 25.6 179.586 25.664H178.458C178.426 25.824 178.378 25.984 178.314 26.144H177.138C177.09 26.224 177.05 26.304 177.018 26.384H179.994C179.962 26.464 179.914 26.544 179.85 26.624C179.802 26.704 179.746 26.784 179.682 26.864H178.962C178.898 26.96 178.834 27.04 178.77 27.104H178.938C178.922 27.12 178.906 27.136 178.89 27.152C178.874 27.168 178.858 27.192 178.842 27.224H177.498L177.378 27.344H177.786C177.77 27.36 177.746 27.376 177.714 27.392C177.698 27.408 177.682 27.432 177.666 27.464H178.41C178.298 27.576 178.154 27.696 177.978 27.824H177.618C177.602 27.84 177.578 27.856 177.546 27.872C177.514 27.888 177.482 27.912 177.45 27.944H177.186C176.93 28.12 176.65 28.28 176.346 28.424H176.034C175.842 28.52 175.634 28.608 175.41 28.688C175.202 28.768 174.978 28.84 174.738 28.904H174.354C174.178 28.952 173.994 28.992 173.802 29.024C173.61 29.072 173.402 29.112 173.178 29.144H174.186C173.962 29.176 173.73 29.2 173.49 29.216C173.25 29.232 172.994 29.24 172.722 29.24C172.466 29.24 172.21 29.232 171.954 29.216C171.698 29.2 171.45 29.176 171.21 29.144H170.202C169.994 29.112 169.794 29.072 169.602 29.024C169.41 28.992 169.218 28.952 169.026 28.904H169.41C168.978 28.792 168.57 28.632 168.186 28.424H168.498C168.21 28.264 167.962 28.104 167.754 27.944H168.018C167.986 27.912 167.954 27.888 167.922 27.872C167.906 27.856 167.882 27.84 167.85 27.824H168.21C168.146 27.76 168.082 27.704 168.018 27.656C167.954 27.592 167.89 27.528 167.826 27.464H167.058L166.938 27.344H166.53C166.514 27.312 166.498 27.288 166.482 27.272C166.466 27.256 166.45 27.24 166.434 27.224H167.754C167.738 27.192 167.706 27.152 167.658 27.104H167.49C167.458 27.072 167.426 27.032 167.394 26.984C167.362 26.936 167.33 26.896 167.298 26.864H168.018C167.97 26.784 167.922 26.704 167.874 26.624C167.826 26.544 167.778 26.464 167.73 26.384H164.73C164.682 26.304 164.642 26.224 164.61 26.144H165.786L165.57 25.664H166.218C166.186 25.584 166.154 25.504 166.122 25.424C166.106 25.344 166.082 25.264 166.05 25.184H165.978L165.906 24.944H166.074L166.002 24.704H167.298C167.282 24.624 167.266 24.544 167.25 24.464C167.234 24.384 167.218 24.304 167.202 24.224H166.242L166.194 23.744H165.858C165.858 23.68 165.85 23.624 165.834 23.576C165.834 23.512 165.834 23.448 165.834 23.384H165.09V23.144H165.93V22.904H167.778V22.664H164.73V22.616C164.73 22.536 164.738 22.472 164.754 22.424H168.906C168.906 22.36 168.906 22.304 168.906 22.256C168.922 22.192 168.93 22.128 168.93 22.064H165.114C165.114 22.032 165.114 22.008 165.114 21.992C165.13 21.976 165.138 21.96 165.138 21.944H166.722C166.722 21.896 166.73 21.856 166.746 21.824H168.522V21.704H165.138C165.154 21.624 165.17 21.544 165.186 21.464C165.202 21.384 165.218 21.304 165.234 21.224H166.146C166.146 21.16 166.162 21.08 166.194 20.984H165.402C165.402 20.952 165.402 20.928 165.402 20.912C165.418 20.896 165.426 20.88 165.426 20.864H166.002C166.002 20.832 166.002 20.808 166.002 20.792C166.018 20.776 166.026 20.76 166.026 20.744H165.426L165.474 20.624H166.05L166.122 20.384H166.578L166.722 20.024H166.29C166.322 19.944 166.354 19.864 166.386 19.784C166.418 19.688 166.458 19.608 166.506 19.544H166.434L166.482 19.424H165.882C165.914 19.36 165.93 19.32 165.93 19.304H165.378L165.522 19.064H166.698C166.714 19.032 166.746 18.992 166.794 18.944H167.226C167.29 18.864 167.346 18.784 167.394 18.704C167.458 18.608 167.522 18.528 167.586 18.464H167.154C167.202 18.4 167.25 18.344 167.298 18.296C167.362 18.232 167.426 18.168 167.49 18.104H168.426L168.666 17.864H167.25C167.458 17.688 167.666 17.528 167.874 17.384H169.194L169.386 17.264H168.954C169.082 17.184 169.234 17.104 169.41 17.024H170.346C170.778 16.816 171.226 16.656 171.69 16.544H170.346C170.698 16.464 171.066 16.4 171.45 16.352C171.834 16.304 172.234 16.28 172.65 16.28C173.066 16.28 173.458 16.304 173.826 16.352C174.194 16.4 174.546 16.464 174.882 16.544H176.202C176.442 16.608 176.666 16.68 176.874 16.76C177.098 16.84 177.314 16.928 177.522 17.024H176.586C176.666 17.056 176.738 17.096 176.802 17.144C176.882 17.176 176.954 17.216 177.018 17.264H177.45C177.482 17.28 177.514 17.296 177.546 17.312C177.578 17.328 177.61 17.352 177.642 17.384H176.322C176.53 17.528 176.738 17.688 176.946 17.864H178.386L178.626 18.104H177.69C177.754 18.168 177.81 18.232 177.858 18.296C177.922 18.344 177.978 18.4 178.026 18.464H178.458C178.522 18.528 178.578 18.608 178.626 18.704C178.69 18.784 178.754 18.864 178.818 18.944H178.362C178.378 18.976 178.41 19.016 178.458 19.064H177.258L177.402 19.304H177.954L178.026 19.424H178.65C178.65 19.44 178.666 19.48 178.698 19.544H178.77L178.986 20.024L179.13 20.384H179.154L179.226 20.624H178.938L178.986 20.744H179.202L179.25 20.864H179.634C179.634 20.88 179.634 20.896 179.634 20.912C179.65 20.928 179.658 20.952 179.658 20.984H179.466L179.538 21.224H178.626L178.698 21.704H182.082V21.824H180.306C180.306 21.84 180.306 21.856 180.306 21.872C180.322 21.888 180.33 21.912 180.33 21.944H178.722C178.738 21.976 178.746 22.016 178.746 22.064H182.562C182.562 22.128 182.562 22.192 182.562 22.256C182.562 22.304 182.57 22.36 182.586 22.424H178.41ZM171.114 20.864V20.984H171.882V21.176H173.802V20.984H173.97V20.864H173.586V20.744H173.346C173.346 20.696 173.338 20.656 173.322 20.624H173.61C173.61 20.56 173.594 20.48 173.562 20.384H173.538C173.522 20.24 173.474 20.12 173.394 20.024C173.234 19.768 172.986 19.64 172.65 19.64C172.33 19.64 172.09 19.768 171.93 20.024H172.362C172.298 20.12 172.25 20.24 172.218 20.384H171.738C171.738 20.416 171.73 20.456 171.714 20.504C171.714 20.536 171.706 20.576 171.69 20.624H171.114C171.114 20.672 171.106 20.712 171.09 20.744H171.69V20.864H171.114ZM197.539 28.544H198.307V28.904H197.707V29.024H197.875C197.859 29.088 197.851 29.144 197.851 29.192C197.851 29.256 197.843 29.32 197.827 29.384H197.803V29.504H196.675C196.659 29.536 196.651 29.576 196.651 29.624C196.651 29.672 196.643 29.712 196.627 29.744H198.019C198.003 29.824 197.987 29.904 197.971 29.984C197.955 30.064 197.939 30.144 197.923 30.224H197.539C197.523 30.288 197.507 30.344 197.491 30.392C197.475 30.456 197.451 30.52 197.419 30.584H196.627L196.531 30.824H196.939L196.843 31.064H196.891C196.859 31.144 196.819 31.224 196.771 31.304H196.795L196.579 31.664C196.563 31.68 196.547 31.696 196.531 31.712C196.531 31.728 196.523 31.752 196.507 31.784C196.475 31.848 196.435 31.904 196.387 31.952C196.339 32.016 196.291 32.08 196.243 32.144H196.195L196.075 32.264H196.531L196.315 32.504H195.763C195.715 32.536 195.667 32.576 195.619 32.624C195.571 32.672 195.531 32.712 195.499 32.744H196.147C196.083 32.808 196.003 32.864 195.907 32.912C195.827 32.976 195.747 33.04 195.667 33.104H196.531C196.435 33.168 196.331 33.224 196.219 33.272C196.123 33.336 196.019 33.4 195.907 33.464H195.667C195.587 33.512 195.499 33.552 195.403 33.584C195.307 33.632 195.219 33.672 195.139 33.704H193.771C193.467 33.816 193.155 33.912 192.835 33.992C192.515 34.072 192.187 34.136 191.851 34.184H193.267C193.027 34.216 192.779 34.24 192.523 34.256C192.267 34.272 192.011 34.28 191.755 34.28C191.483 34.28 191.211 34.272 190.939 34.256C190.683 34.24 190.435 34.216 190.195 34.184H188.779C188.059 34.088 187.395 33.928 186.787 33.704H188.155C188.059 33.672 187.963 33.632 187.867 33.584C187.771 33.552 187.675 33.512 187.579 33.464H187.819C187.707 33.4 187.595 33.336 187.483 33.272C187.371 33.224 187.259 33.168 187.147 33.104H186.307C186.211 33.04 186.115 32.976 186.019 32.912C185.939 32.864 185.859 32.808 185.779 32.744H185.131C185.003 32.648 184.907 32.568 184.843 32.504H185.395C185.347 32.472 185.299 32.432 185.251 32.384C185.203 32.336 185.163 32.296 185.131 32.264H184.675C184.659 32.232 184.643 32.208 184.627 32.192C184.611 32.176 184.587 32.16 184.555 32.144H184.627C184.563 32.08 184.507 32.016 184.459 31.952C184.411 31.904 184.363 31.848 184.315 31.784H184.291C184.275 31.752 184.243 31.712 184.195 31.664H184.219C184.171 31.6 184.123 31.536 184.075 31.472C184.027 31.424 183.987 31.368 183.955 31.304L183.811 31.064H183.763C183.747 31.032 183.731 30.992 183.715 30.944C183.699 30.896 183.675 30.856 183.643 30.824H183.235L183.139 30.584H183.955C183.939 30.52 183.915 30.456 183.883 30.392C183.867 30.344 183.851 30.288 183.835 30.224H183.691C183.691 30.176 183.683 30.128 183.667 30.08C183.667 30.048 183.667 30.016 183.667 29.984C183.667 29.872 183.675 29.792 183.691 29.744H183.619C183.667 29.648 183.723 29.568 183.787 29.504H183.643C183.739 29.44 183.811 29.4 183.859 29.384H184.171C184.267 29.352 184.355 29.336 184.435 29.336H189.115C189.195 29.336 189.283 29.352 189.379 29.384H189.043C189.123 29.4 189.187 29.44 189.235 29.504H189.379C189.443 29.568 189.499 29.648 189.547 29.744H189.619L189.667 29.816C189.779 30.008 189.883 30.144 189.979 30.224H190.099C190.275 30.352 190.515 30.416 190.819 30.416C191.059 30.416 191.267 30.352 191.443 30.224H191.827C191.971 30.112 192.075 29.952 192.139 29.744H190.747C190.779 29.648 190.795 29.568 190.795 29.504H191.923C191.939 29.472 191.947 29.432 191.947 29.384H191.971C191.987 29.32 191.995 29.256 191.995 29.192C191.995 29.144 191.995 29.088 191.995 29.024H191.851V28.904H192.427V28.544H191.659V28.424H191.203V28.304H191.635V27.824H191.179V27.68L190.939 27.824H190.915C190.531 28.048 190.115 28.208 189.667 28.304H189.763C189.635 28.32 189.507 28.344 189.379 28.376C189.251 28.392 189.115 28.408 188.971 28.424H188.371C188.275 28.44 188.179 28.448 188.083 28.448C187.987 28.448 187.891 28.448 187.795 28.448C187.683 28.448 187.571 28.448 187.459 28.448C187.347 28.448 187.243 28.44 187.147 28.424H187.723C187.579 28.408 187.435 28.392 187.291 28.376C187.147 28.344 187.003 28.32 186.859 28.304H186.787C186.547 28.256 186.315 28.192 186.091 28.112C185.883 28.032 185.675 27.936 185.467 27.824H185.491C185.427 27.792 185.363 27.76 185.299 27.728C185.235 27.68 185.171 27.632 185.107 27.584H185.659C185.563 27.504 185.467 27.424 185.371 27.344C185.291 27.264 185.211 27.184 185.131 27.104H183.187L183.067 26.984H184.171C184.043 26.824 183.931 26.664 183.835 26.504H184.147C184.035 26.344 183.947 26.184 183.883 26.024H183.835C183.755 25.848 183.691 25.688 183.643 25.544H181.891C181.891 25.512 181.891 25.488 181.891 25.472C181.875 25.456 181.867 25.44 181.867 25.424H183.499L183.427 25.184H183.547C183.531 25.104 183.507 25.024 183.475 24.944C183.459 24.864 183.443 24.784 183.427 24.704H183.715L183.643 24.224H183.331L183.307 23.984H182.731C182.715 23.904 182.707 23.824 182.707 23.744C182.707 23.664 182.699 23.584 182.683 23.504H182.467C182.467 23.44 182.467 23.384 182.467 23.336C182.451 23.272 182.443 23.208 182.443 23.144H182.779V22.904H183.211C183.211 22.84 183.203 22.784 183.187 22.736C183.187 22.672 183.187 22.608 183.187 22.544H183.403V22.184H183.019C183.019 22.12 183.019 22.064 183.019 22.016C183.019 21.952 183.027 21.888 183.043 21.824H183.091V21.8C183.091 21.736 183.091 21.68 183.091 21.632C183.107 21.584 183.115 21.528 183.115 21.464H183.211C183.227 21.4 183.235 21.344 183.235 21.296C183.235 21.232 183.243 21.168 183.259 21.104C183.275 21.072 183.283 21.032 183.283 20.984C183.283 20.936 183.291 20.896 183.307 20.864H183.187V20.744H183.331C183.347 20.664 183.363 20.584 183.379 20.504C183.395 20.408 183.411 20.328 183.427 20.264H183.403C183.419 20.2 183.435 20.144 183.451 20.096C183.467 20.032 183.483 19.968 183.499 19.904H183.691C183.723 19.824 183.747 19.744 183.763 19.664C183.795 19.568 183.827 19.488 183.859 19.424H183.979L184.027 19.304H183.691C183.707 19.272 183.723 19.232 183.739 19.184C183.755 19.136 183.771 19.096 183.787 19.064L183.931 18.704C183.947 18.672 183.955 18.648 183.955 18.632C183.971 18.616 183.987 18.6 184.003 18.584L184.075 18.464C184.107 18.432 184.131 18.392 184.147 18.344C184.179 18.296 184.211 18.256 184.243 18.224C184.259 18.192 184.275 18.168 184.291 18.152C184.307 18.136 184.323 18.12 184.339 18.104H184.291L184.579 17.744C184.627 17.712 184.667 17.672 184.699 17.624C184.747 17.576 184.787 17.536 184.819 17.504H184.867C184.883 17.472 184.899 17.448 184.915 17.432C184.947 17.416 184.971 17.4 184.987 17.384H185.251C185.347 17.288 185.451 17.208 185.563 17.144H184.963C185.027 17.096 185.091 17.056 185.155 17.024C185.219 16.976 185.283 16.936 185.347 16.904H185.515C185.739 16.776 186.011 16.656 186.331 16.544H187.123C187.699 16.368 188.315 16.28 188.971 16.28C189.547 16.28 190.083 16.368 190.579 16.544H189.787C190.043 16.624 190.299 16.744 190.555 16.904H190.411C190.475 16.936 190.531 16.976 190.579 17.024C190.643 17.056 190.707 17.096 190.771 17.144H191.347C191.411 17.176 191.467 17.216 191.515 17.264C191.563 17.312 191.611 17.352 191.659 17.384H191.395L191.515 17.504H191.491L191.707 17.744C191.739 17.76 191.763 17.784 191.779 17.816C191.811 17.848 191.835 17.88 191.851 17.912V17.744H191.947V17.504H192.355V17.384H192.619V17.144H191.443C191.443 17.048 191.467 16.968 191.515 16.904H191.923C192.003 16.712 192.139 16.592 192.331 16.544H191.851C191.899 16.528 191.963 16.52 192.043 16.52H196.243C196.323 16.52 196.379 16.528 196.411 16.544H196.891C197.083 16.592 197.219 16.712 197.299 16.904H196.891C196.923 17 196.939 17.08 196.939 17.144H198.115V17.384H197.851V17.504H197.443V17.744H197.347V18.104H197.371V18.464H197.347V19.064H197.371V19.304H197.707V19.424H197.563V19.904H197.347L197.371 20.264V20.864H197.299V21.104H197.227V21.464H197.371V21.824H197.659V22.184H197.155V22.544H197.323V22.904H197.371V23.144H196.579L196.603 23.504H196.699V23.984H197.227V24.224H197.659V24.704H197.347V25.184H197.251V25.424H195.595V25.544H197.347V26.024H197.395V26.504H197.059L197.083 26.984H195.979V27.104H197.923V27.584H197.059V27.824H197.515V28.304H197.083V28.424H197.539V28.544ZM189.451 23.984C189.563 24.096 189.707 24.176 189.883 24.224H190.171C190.235 24.24 190.299 24.256 190.363 24.272C190.443 24.272 190.515 24.272 190.579 24.272C190.659 24.272 190.731 24.272 190.795 24.272C190.875 24.256 190.947 24.24 191.011 24.224H190.579C190.755 24.176 190.899 24.096 191.011 23.984H190.483C190.611 23.856 190.699 23.696 190.747 23.504H190.651L190.723 23.144H191.491C191.491 23.112 191.499 23.088 191.515 23.072V22.904H191.467V22.544H191.323V22.184H191.803V21.824H191.491V21.776C191.491 21.712 191.483 21.656 191.467 21.608C191.467 21.56 191.459 21.512 191.443 21.464H191.323C191.307 21.336 191.267 21.216 191.203 21.104H191.251C191.203 21.008 191.147 20.928 191.083 20.864H191.155C191.091 20.8 191.043 20.76 191.011 20.744C190.851 20.632 190.619 20.576 190.315 20.576C190.011 20.576 189.779 20.632 189.619 20.744H189.475C189.443 20.76 189.395 20.8 189.331 20.864H189.451C189.387 20.928 189.331 21.008 189.283 21.104H189.259C189.243 21.152 189.227 21.208 189.211 21.272C189.195 21.32 189.171 21.384 189.139 21.464H189.043C189.027 21.528 189.011 21.592 188.995 21.656C188.995 21.704 188.995 21.76 188.995 21.824H188.923V21.968C188.907 22.016 188.899 22.088 188.899 22.184H189.283V22.544H189.067C189.067 22.608 189.067 22.672 189.067 22.736C189.083 22.784 189.091 22.832 189.091 22.88V22.904H188.659L188.683 23.144H188.347L188.419 23.504H188.635C188.683 23.696 188.771 23.856 188.899 23.984H189.451ZM191.827 27.584H192.043V27.416L191.827 27.584ZM217.508 22.064C217.524 22.144 217.532 22.224 217.532 22.304C217.532 22.384 217.532 22.464 217.532 22.544H215.828V22.784H214.844V23.024H215.78V23.144H214.7V23.504H214.1V23.624H215.444C215.444 23.672 215.436 23.712 215.42 23.744H215.348V23.864H215.564V23.888C215.564 23.952 215.556 24.024 215.54 24.104C215.54 24.184 215.532 24.264 215.516 24.344H215.348L215.276 24.824H215.636C215.636 24.888 215.62 24.968 215.588 25.064H215.516C215.5 25.128 215.484 25.192 215.468 25.256C215.452 25.304 215.436 25.36 215.42 25.424H215.612C215.596 25.504 215.572 25.584 215.54 25.664C215.508 25.744 215.476 25.824 215.444 25.904H215.084L214.988 26.144H215.036C215.004 26.208 214.988 26.248 214.988 26.264H214.892C214.828 26.424 214.74 26.584 214.628 26.744H214.676C214.66 26.776 214.636 26.816 214.604 26.864C214.572 26.912 214.54 26.952 214.508 26.984H214.484L214.196 27.344C214.18 27.36 214.164 27.376 214.148 27.392C214.132 27.408 214.108 27.432 214.076 27.464H213.956C213.892 27.528 213.828 27.592 213.764 27.656C213.7 27.704 213.628 27.76 213.548 27.824H212.828L212.324 28.184H212.42C212.388 28.2 212.356 28.216 212.324 28.232C212.292 28.248 212.26 28.272 212.228 28.304H212.06C212.028 28.32 211.988 28.336 211.94 28.352C211.892 28.368 211.852 28.392 211.82 28.424H213.116C213.036 28.472 212.948 28.52 212.852 28.568C212.756 28.6 212.66 28.632 212.564 28.664H212.156C212.044 28.712 211.924 28.76 211.796 28.808C211.668 28.84 211.54 28.872 211.412 28.904H211.508C211.316 28.952 211.116 28.992 210.908 29.024C210.7 29.072 210.484 29.112 210.26 29.144H211.004C210.748 29.176 210.484 29.2 210.212 29.216C209.94 29.232 209.66 29.24 209.372 29.24C209.068 29.24 208.78 29.232 208.508 29.216C208.252 29.2 207.988 29.176 207.716 29.144H206.948C206.74 29.112 206.524 29.072 206.3 29.024C206.092 28.992 205.892 28.952 205.7 28.904H205.628C205.5 28.872 205.372 28.84 205.244 28.808C205.132 28.76 205.012 28.712 204.884 28.664H205.268C205.188 28.632 205.1 28.6 205.004 28.568C204.908 28.52 204.82 28.472 204.74 28.424H203.444L203.228 28.304H203.396L203.18 28.184H203.084C202.892 28.056 202.724 27.936 202.58 27.824H203.3C203.236 27.76 203.172 27.704 203.108 27.656C203.044 27.592 202.98 27.528 202.916 27.464H203.036C203.02 27.432 203.004 27.408 202.988 27.392C202.972 27.376 202.948 27.36 202.916 27.344L202.628 26.984H202.652L202.484 26.744H202.436C202.324 26.584 202.236 26.424 202.172 26.264H202.244C202.212 26.2 202.196 26.16 202.196 26.144H202.124L202.028 25.904H202.388C202.372 25.824 202.348 25.744 202.316 25.664C202.284 25.584 202.252 25.504 202.22 25.424H202.028C202.012 25.36 201.996 25.304 201.98 25.256C201.964 25.192 201.948 25.128 201.932 25.064H201.788L201.716 24.824H201.476L201.404 24.344H201.644C201.628 24.264 201.612 24.184 201.596 24.104C201.596 24.024 201.596 23.952 201.596 23.888V23.864H201.164V23.744H201.044C201.044 23.712 201.036 23.688 201.02 23.672C201.02 23.656 201.02 23.64 201.02 23.624H202.364C202.364 23.576 202.356 23.536 202.34 23.504H200.996V23.144H201.572V23.024H201.86V22.784H202.364V22.544H200.9C200.9 22.464 200.9 22.384 200.9 22.304C200.9 22.224 200.908 22.144 200.924 22.064H200.612V21.824H202.988C203.004 21.776 203.012 21.712 203.012 21.632V21.464H202.364C202.364 21.4 202.364 21.344 202.364 21.296C202.38 21.232 202.388 21.168 202.388 21.104H202.628L202.7 20.624H201.908C201.924 20.56 201.94 20.504 201.956 20.456C201.972 20.392 201.988 20.328 202.004 20.264H201.836C201.868 20.184 201.892 20.104 201.908 20.024C201.94 19.928 201.972 19.848 202.004 19.784H202.028C202.044 19.752 202.06 19.712 202.076 19.664C202.092 19.616 202.108 19.576 202.124 19.544H202.1C202.1 19.528 202.116 19.488 202.148 19.424H202.268C202.332 19.264 202.42 19.104 202.532 18.944H202.052L202.196 18.704H203.084C203.1 18.672 203.132 18.632 203.18 18.584H201.428C201.46 18.52 201.5 18.464 201.548 18.416C201.612 18.352 201.668 18.288 201.716 18.224H202.268C202.348 18.144 202.428 18.064 202.508 17.984C202.604 17.888 202.692 17.808 202.772 17.744H203.876C204.02 17.616 204.188 17.496 204.38 17.384H204.836C204.9 17.336 204.964 17.296 205.028 17.264C205.108 17.216 205.18 17.176 205.244 17.144H203.828C203.972 17.064 204.148 16.984 204.356 16.904H205.004C205.372 16.76 205.756 16.64 206.156 16.544H205.436C206.22 16.368 207.052 16.28 207.932 16.28C208.812 16.28 209.644 16.368 210.428 16.544H211.172C211.572 16.64 211.948 16.76 212.3 16.904H211.628C211.836 16.984 212.012 17.064 212.156 17.144H213.572C213.652 17.176 213.724 17.216 213.788 17.264C213.868 17.296 213.94 17.336 214.004 17.384H213.548L214.052 17.744H212.948C213.044 17.808 213.132 17.888 213.212 17.984C213.308 18.064 213.396 18.144 213.476 18.224H212.924C212.972 18.288 213.02 18.352 213.068 18.416C213.132 18.464 213.18 18.52 213.212 18.584H214.988L215.06 18.704H214.196L214.34 18.944H214.82C214.932 19.104 215.02 19.264 215.084 19.424H214.964C214.996 19.488 215.012 19.528 215.012 19.544H215.06L215.156 19.784H215.132C215.164 19.848 215.196 19.928 215.228 20.024C215.26 20.104 215.284 20.184 215.3 20.264H215.54L215.612 20.624H215.468C215.5 20.688 215.516 20.768 215.516 20.864C215.532 20.944 215.548 21.024 215.564 21.104H215.756C215.772 21.168 215.78 21.232 215.78 21.296C215.78 21.344 215.788 21.4 215.804 21.464H214.868V21.632C214.868 21.712 214.876 21.776 214.892 21.824H214.412V22.064H217.508ZM208.292 21.104C208.276 21.168 208.26 21.232 208.244 21.296C208.244 21.344 208.244 21.4 208.244 21.464H208.916C208.9 21.512 208.892 21.56 208.892 21.608C208.892 21.656 208.892 21.704 208.892 21.752V21.824H208.988V21.752C208.988 21.704 208.98 21.656 208.964 21.608C208.964 21.56 208.964 21.512 208.964 21.464H209.9C209.9 21.4 209.892 21.344 209.876 21.296C209.876 21.232 209.876 21.168 209.876 21.104H209.684C209.668 21.008 209.644 20.92 209.612 20.84C209.596 20.76 209.572 20.688 209.54 20.624H209.708C209.644 20.48 209.548 20.36 209.42 20.264H209.18C209.02 20.168 208.812 20.12 208.556 20.12C208.3 20.12 208.1 20.168 207.956 20.264H208.124C208.06 20.312 208.004 20.368 207.956 20.432C207.908 20.48 207.868 20.544 207.836 20.624H208.628C208.612 20.688 208.588 20.76 208.556 20.84C208.54 20.92 208.524 21.008 208.508 21.104H208.292ZM209.924 22.544H211.628V22.064H208.532C208.516 22 208.508 21.92 208.508 21.824H206.516C206.516 21.92 206.508 22 206.492 22.064H206.804V22.544H208.268V22.784H207.74V23.024H207.452V23.144H206.876C206.876 23.208 206.876 23.272 206.876 23.336C206.892 23.384 206.9 23.44 206.9 23.504H208.796V23.144H209.876V23.024H208.94V22.784H209.924V22.544ZM209.54 23.744V23.624H206.924V23.744H207.044V23.768C207.044 23.784 207.044 23.8 207.044 23.816C207.06 23.832 207.068 23.848 207.068 23.864H207.476C207.492 23.944 207.5 24.024 207.5 24.104C207.5 24.184 207.508 24.264 207.524 24.344H207.284C207.316 24.552 207.348 24.712 207.38 24.824H207.644C207.676 24.92 207.708 25 207.74 25.064H207.908C208.052 25.288 208.324 25.4 208.724 25.4C209.124 25.4 209.396 25.288 209.54 25.064H209.636C209.652 25.032 209.668 25 209.684 24.968C209.7 24.92 209.716 24.872 209.732 24.824H209.372C209.388 24.744 209.404 24.672 209.42 24.608C209.436 24.528 209.452 24.44 209.468 24.344H209.636C209.652 24.264 209.66 24.184 209.66 24.104C209.66 24.024 209.668 23.944 209.684 23.864H209.468V23.744H209.54ZM230.506 18.344H231.418V18.824H231.37V19.304H230.53V19.664H230.746V20.144H230.554V20.624H230.122V20.744H228.61V20.912C228.61 20.944 228.602 20.976 228.586 21.008C228.586 21.04 228.578 21.072 228.562 21.104H229.114C229.034 21.408 228.826 21.56 228.49 21.56H225.394C225.33 21.56 225.266 21.56 225.202 21.56C225.154 21.56 225.106 21.568 225.058 21.584H226.018C225.938 21.6 225.866 21.616 225.802 21.632C225.738 21.648 225.666 21.672 225.586 21.704H226.378C226.33 21.72 226.258 21.76 226.162 21.824H226.618L226.474 21.944H226.594C226.498 22.04 226.426 22.16 226.378 22.304H225.658C225.626 22.368 225.61 22.408 225.61 22.424H225.37C225.37 22.44 225.362 22.456 225.346 22.472C225.346 22.488 225.346 22.512 225.346 22.544H225.634C225.618 22.576 225.61 22.616 225.61 22.664C225.61 22.696 225.602 22.736 225.586 22.784H225.73V23.144H225.394V23.384H225.73V23.744H226.09V24.224H225.562V24.344H225.178V24.464H226.618V24.824H225.898V25.064H226.138V25.304H225.586V25.784H225.274V25.904H224.962V26.264H225.778V26.624H225.346V26.984H225.778V27.104H225.73V27.344H225.202V27.584H225.586V28.064H225.682V28.424H225.586C225.554 28.648 225.45 28.808 225.274 28.904H225.058C224.978 28.968 224.866 29 224.722 29H220.162C220.018 29 219.906 28.968 219.826 28.904H220.042C219.866 28.808 219.762 28.648 219.73 28.424H219.826V28.064H219.73V27.584H219.346V27.344H219.874V27.104H219.922V26.984H219.49V26.624H219.922V26.264H219.106V25.904H219.418V25.784H219.73V25.304H220.282V25.064H220.042V24.824H220.762V24.464H219.322V24.344H219.706V24.224H220.234V23.744H219.874V23.384H219.538V23.144H219.874V22.784H219.73V22.544H219.442V22.424H219.682V22.304H220.402V21.944H220.282V21.824H219.85V21.704H219.058V21.584H218.098V21.104H217.57V20.744H219.082V20.624H219.514V20.144H219.706V19.664H219.49V19.304H220.33V18.824H220.378V18.344H219.466V17.984H220.234V17.504H219.49V17.384H219.73V17.168C219.73 17.088 219.746 17 219.778 16.904H219.754C219.866 16.648 220.066 16.52 220.354 16.52H224.554C224.826 16.52 225.018 16.648 225.13 16.904H225.178C225.21 17 225.226 17.088 225.226 17.168V17.384H224.986V17.504H225.73V17.576L225.826 17.504H225.874C225.906 17.472 225.938 17.448 225.97 17.432C226.002 17.416 226.026 17.4 226.042 17.384H226.09C226.41 17.176 226.722 17.016 227.026 16.904H227.074C227.394 16.776 227.714 16.68 228.034 16.616C228.354 16.552 228.69 16.52 229.042 16.52H230.194C230.482 16.52 230.682 16.648 230.794 16.904H230.746C230.778 17 230.794 17.088 230.794 17.168V17.384H230.77V17.504H230.722V17.984H230.506V18.344ZM234.432 14.504V14.024H234.408V13.664H234.624V13.544H234.768V13.064H234.648V12.704H234.672V12.224H234.768V11.864H234.72V11.648C234.72 11.52 234.736 11.432 234.768 11.384H235.008L235.08 11.264H234.888C235.016 11.088 235.192 11 235.416 11H239.472C239.696 11 239.872 11.088 240 11.264H240.192L240.264 11.384H240C240.048 11.448 240.072 11.536 240.072 11.648V11.864H240.12V12.224H240.024V12.704H240V13.064H240.12V13.544H239.976V13.664H239.76V14.024H239.784V14.504H239.952V14.552C239.952 14.696 239.896 14.84 239.784 14.984H239.496C239.384 15.128 239.224 15.2 239.016 15.2H234.96C234.752 15.2 234.584 15.128 234.456 14.984H234.744C234.648 14.856 234.6 14.712 234.6 14.552V14.504H234.432ZM239.376 19.544H241.632V20.024H240.816V20.264H239.904V20.744H240.6V20.864H240.144V21.104H240.216V21.344H240.336V21.704H239.136V22.064H239.928V22.424H239.784V22.664H240.192V23.024H240.288V23.384H240.144V23.744H240.264V23.984H240.144V24.464H240.096V24.824H240V25.184H240.096V25.424H240.144V25.904H240.048V26.144H240.168V26.384H240.144V26.744H240.24V27.104H240.312V27.224H240.144V27.704H239.808V28.184H240.048V28.352C240.048 28.432 240.04 28.496 240.024 28.544H239.856C239.808 28.704 239.72 28.824 239.592 28.904H240.072C239.992 28.968 239.872 29 239.712 29H235.416C235.272 29 235.16 28.968 235.08 28.904H234.6C234.456 28.824 234.36 28.704 234.312 28.544H234.48C234.464 28.496 234.456 28.432 234.456 28.352V28.184H234.216V27.704H234.552V27.224H234.72V27.104H234.648V26.744H234.552V26.384H234.576V26.144H234.456V25.904H234.552V25.424H234.504V25.184H234.408V24.824H234.504V24.464H234.552V23.984H234.672V23.744H234.552V23.384H234.696V23.024H234.6V22.664H234.192V22.424H234.336V22.064H233.544V21.704H234.744V21.344H234.624V21.104H234.552V20.864H235.008V20.744H234.312V20.264H235.224V20.024H236.04V19.544H233.784V19.304H235.776V18.824H235.056V18.464H235.488V17.984H234.72V17.864H234.552V17.624H234.408V17.264H234.576V17.168C234.576 16.992 234.616 16.864 234.696 16.784H234.72C234.848 16.608 235.024 16.52 235.248 16.52H239.544C239.768 16.52 239.944 16.608 240.072 16.784H240.024C240.12 16.88 240.168 17.008 240.168 17.168V17.264H240V17.624H240.144V17.864H240.312V17.984H241.08V18.464H240.648V18.824H241.368V19.304H239.376V19.544ZM260.473 22.064C260.489 22.144 260.497 22.224 260.497 22.304C260.497 22.384 260.497 22.464 260.497 22.544H258.793V22.784H257.809V23.024H258.745V23.144H257.665V23.504H257.065V23.624H258.409C258.409 23.672 258.401 23.712 258.385 23.744H258.313V23.864H258.529V23.888C258.529 23.952 258.521 24.024 258.505 24.104C258.505 24.184 258.497 24.264 258.481 24.344H258.313L258.241 24.824H258.601C258.601 24.888 258.585 24.968 258.553 25.064H258.481C258.465 25.128 258.449 25.192 258.433 25.256C258.417 25.304 258.401 25.36 258.385 25.424H258.577C258.561 25.504 258.537 25.584 258.505 25.664C258.473 25.744 258.441 25.824 258.409 25.904H258.049L257.953 26.144H258.001C257.969 26.208 257.953 26.248 257.953 26.264H257.857C257.793 26.424 257.705 26.584 257.593 26.744H257.641C257.625 26.776 257.601 26.816 257.569 26.864C257.537 26.912 257.505 26.952 257.473 26.984H257.449L257.161 27.344C257.145 27.36 257.129 27.376 257.113 27.392C257.097 27.408 257.073 27.432 257.041 27.464H256.921C256.857 27.528 256.793 27.592 256.729 27.656C256.665 27.704 256.593 27.76 256.513 27.824H255.793L255.289 28.184H255.385C255.353 28.2 255.321 28.216 255.289 28.232C255.257 28.248 255.225 28.272 255.193 28.304H255.025C254.993 28.32 254.953 28.336 254.905 28.352C254.857 28.368 254.817 28.392 254.785 28.424H256.081C256.001 28.472 255.913 28.52 255.817 28.568C255.721 28.6 255.625 28.632 255.529 28.664H255.121C255.009 28.712 254.889 28.76 254.761 28.808C254.633 28.84 254.505 28.872 254.377 28.904H254.473C254.281 28.952 254.081 28.992 253.873 29.024C253.665 29.072 253.449 29.112 253.225 29.144H253.969C253.713 29.176 253.449 29.2 253.177 29.216C252.905 29.232 252.625 29.24 252.337 29.24C252.033 29.24 251.745 29.232 251.473 29.216C251.217 29.2 250.953 29.176 250.681 29.144H249.913C249.705 29.112 249.489 29.072 249.265 29.024C249.057 28.992 248.857 28.952 248.665 28.904H248.593C248.465 28.872 248.337 28.84 248.209 28.808C248.097 28.76 247.977 28.712 247.849 28.664H248.233C248.153 28.632 248.065 28.6 247.969 28.568C247.873 28.52 247.785 28.472 247.705 28.424H246.409L246.193 28.304H246.361L246.145 28.184H246.049C245.857 28.056 245.689 27.936 245.545 27.824H246.265C246.201 27.76 246.137 27.704 246.073 27.656C246.009 27.592 245.945 27.528 245.881 27.464H246.001C245.985 27.432 245.969 27.408 245.953 27.392C245.937 27.376 245.913 27.36 245.881 27.344L245.593 26.984H245.617L245.449 26.744H245.401C245.289 26.584 245.201 26.424 245.137 26.264H245.209C245.177 26.2 245.161 26.16 245.161 26.144H245.089L244.993 25.904H245.353C245.337 25.824 245.313 25.744 245.281 25.664C245.249 25.584 245.217 25.504 245.185 25.424H244.993C244.977 25.36 244.961 25.304 244.945 25.256C244.929 25.192 244.913 25.128 244.897 25.064H244.753L244.681 24.824H244.441L244.369 24.344H244.609C244.593 24.264 244.577 24.184 244.561 24.104C244.561 24.024 244.561 23.952 244.561 23.888V23.864H244.129V23.744H244.009C244.009 23.712 244.001 23.688 243.985 23.672C243.985 23.656 243.985 23.64 243.985 23.624H245.329C245.329 23.576 245.321 23.536 245.305 23.504H243.961V23.144H244.537V23.024H244.825V22.784H245.329V22.544H243.865C243.865 22.464 243.865 22.384 243.865 22.304C243.865 22.224 243.873 22.144 243.889 22.064H243.577V21.824H245.953C245.969 21.776 245.977 21.712 245.977 21.632V21.464H245.329C245.329 21.4 245.329 21.344 245.329 21.296C245.345 21.232 245.353 21.168 245.353 21.104H245.593L245.665 20.624H244.873C244.889 20.56 244.905 20.504 244.921 20.456C244.937 20.392 244.953 20.328 244.969 20.264H244.801C244.833 20.184 244.857 20.104 244.873 20.024C244.905 19.928 244.937 19.848 244.969 19.784H244.993C245.009 19.752 245.025 19.712 245.041 19.664C245.057 19.616 245.073 19.576 245.089 19.544H245.065C245.065 19.528 245.081 19.488 245.113 19.424H245.233C245.297 19.264 245.385 19.104 245.497 18.944H245.017L245.161 18.704H246.049C246.065 18.672 246.097 18.632 246.145 18.584H244.393C244.425 18.52 244.465 18.464 244.513 18.416C244.577 18.352 244.633 18.288 244.681 18.224H245.233C245.313 18.144 245.393 18.064 245.473 17.984C245.569 17.888 245.657 17.808 245.737 17.744H246.841C246.985 17.616 247.153 17.496 247.345 17.384H247.801C247.865 17.336 247.929 17.296 247.993 17.264C248.073 17.216 248.145 17.176 248.209 17.144H246.793C246.937 17.064 247.113 16.984 247.321 16.904H247.969C248.337 16.76 248.721 16.64 249.121 16.544H248.401C249.185 16.368 250.017 16.28 250.897 16.28C251.777 16.28 252.609 16.368 253.393 16.544H254.137C254.537 16.64 254.913 16.76 255.265 16.904H254.593C254.801 16.984 254.977 17.064 255.121 17.144H256.537C256.617 17.176 256.689 17.216 256.753 17.264C256.833 17.296 256.905 17.336 256.969 17.384H256.513L257.017 17.744H255.913C256.009 17.808 256.097 17.888 256.177 17.984C256.273 18.064 256.361 18.144 256.441 18.224H255.889C255.937 18.288 255.985 18.352 256.033 18.416C256.097 18.464 256.145 18.52 256.177 18.584H257.953L258.025 18.704H257.161L257.305 18.944H257.785C257.897 19.104 257.985 19.264 258.049 19.424H257.929C257.961 19.488 257.977 19.528 257.977 19.544H258.025L258.121 19.784H258.097C258.129 19.848 258.161 19.928 258.193 20.024C258.225 20.104 258.249 20.184 258.265 20.264H258.505L258.577 20.624H258.433C258.465 20.688 258.481 20.768 258.481 20.864C258.497 20.944 258.513 21.024 258.529 21.104H258.721C258.737 21.168 258.745 21.232 258.745 21.296C258.745 21.344 258.753 21.4 258.769 21.464H257.833V21.632C257.833 21.712 257.841 21.776 257.857 21.824H257.377V22.064H260.473ZM251.257 21.104C251.241 21.168 251.225 21.232 251.209 21.296C251.209 21.344 251.209 21.4 251.209 21.464H251.881C251.865 21.512 251.857 21.56 251.857 21.608C251.857 21.656 251.857 21.704 251.857 21.752V21.824H251.953V21.752C251.953 21.704 251.945 21.656 251.929 21.608C251.929 21.56 251.929 21.512 251.929 21.464H252.865C252.865 21.4 252.857 21.344 252.841 21.296C252.841 21.232 252.841 21.168 252.841 21.104H252.649C252.633 21.008 252.609 20.92 252.577 20.84C252.561 20.76 252.537 20.688 252.505 20.624H252.673C252.609 20.48 252.513 20.36 252.385 20.264H252.145C251.985 20.168 251.777 20.12 251.521 20.12C251.265 20.12 251.065 20.168 250.921 20.264H251.089C251.025 20.312 250.969 20.368 250.921 20.432C250.873 20.48 250.833 20.544 250.801 20.624H251.593C251.577 20.688 251.553 20.76 251.521 20.84C251.505 20.92 251.489 21.008 251.473 21.104H251.257ZM252.889 22.544H254.593V22.064H251.497C251.481 22 251.473 21.92 251.473 21.824H249.481C249.481 21.92 249.473 22 249.457 22.064H249.769V22.544H251.233V22.784H250.705V23.024H250.417V23.144H249.841C249.841 23.208 249.841 23.272 249.841 23.336C249.857 23.384 249.865 23.44 249.865 23.504H251.761V23.144H252.841V23.024H251.905V22.784H252.889V22.544ZM252.505 23.744V23.624H249.889V23.744H250.009V23.768C250.009 23.784 250.009 23.8 250.009 23.816C250.025 23.832 250.033 23.848 250.033 23.864H250.441C250.457 23.944 250.465 24.024 250.465 24.104C250.465 24.184 250.473 24.264 250.489 24.344H250.249C250.281 24.552 250.313 24.712 250.345 24.824H250.609C250.641 24.92 250.673 25 250.705 25.064H250.873C251.017 25.288 251.289 25.4 251.689 25.4C252.089 25.4 252.361 25.288 252.505 25.064H252.601C252.617 25.032 252.633 25 252.649 24.968C252.665 24.92 252.681 24.872 252.697 24.824H252.337C252.353 24.744 252.369 24.672 252.385 24.608C252.401 24.528 252.417 24.44 252.433 24.344H252.601C252.617 24.264 252.625 24.184 252.625 24.104C252.625 24.024 252.633 23.944 252.649 23.864H252.433V23.744H252.505Z" fill="white"/>
<path fill-rule="evenodd" clip-rule="evenodd" d="M4.3125 10.2488C4.3125 7.41868 6.88686 5.12439 10.0625 5.12439H35.9375C39.1131 5.12439 41.6875 7.41868 41.6875 10.2488V30.7466C41.6875 33.5767 39.1131 35.871 35.9375 35.871H10.0625C6.88686 35.871 4.3125 33.5767 4.3125 30.7466V10.2488ZM11.921 11.9052C12.4824 11.4049 13.3926 11.4049 13.954 11.9052L18.2665 15.7485C18.8278 16.2488 18.8278 17.06 18.2665 17.5603L13.954 21.4036C13.3926 21.9039 12.4824 21.9039 11.921 21.4036C11.3597 20.9033 11.3597 20.0921 11.921 19.5918L15.2171 16.6544L11.921 13.7169C11.3597 13.2166 11.3597 12.4055 11.921 11.9052ZM20.125 19.2166C19.3311 19.2166 18.6875 19.7902 18.6875 20.4977C18.6875 21.2053 19.3311 21.7788 20.125 21.7788H25.875C26.6689 21.7788 27.3125 21.2053 27.3125 20.4977C27.3125 19.7902 26.6689 19.2166 25.875 19.2166H20.125Z" fill="white"/>
</svg>
