<svg width="67" height="61" viewBox="0 0 67 61" fill="none" xmlns="http://www.w3.org/2000/svg">
<path d="M53.7081 21.3161C53.0394 21.1101 52.3659 20.9183 51.6876 20.7406C51.8001 20.3278 51.9038 19.9127 51.9988 19.4952C53.5289 12.785 52.5285 7.37914 49.1139 5.59958C45.8444 3.89196 40.4826 5.67152 35.0736 9.92642C34.5418 10.3463 34.0208 10.7787 33.5108 11.2236C33.1708 10.928 32.822 10.6387 32.4646 10.3557C26.7954 5.80596 21.1131 3.8896 17.7024 5.67505C14.4329 7.38621 13.4613 12.4678 14.8383 18.8278C14.9761 19.4567 15.1309 20.0829 15.3026 20.7064C14.4983 20.9128 13.7215 21.1333 12.9787 21.3668C6.34041 23.46 2.09537 26.742 2.09537 30.1455C2.09537 33.6621 6.65166 37.1882 13.5737 39.3263C14.1352 39.4985 14.7019 39.6585 15.2738 39.8063C15.0881 40.4738 14.9238 41.1487 14.7808 41.8311C13.473 48.0814 14.4931 53.0427 17.756 54.7433C21.1261 56.4992 26.7797 54.6949 32.2906 50.3433C32.7266 49.9989 33.1625 49.6353 33.5984 49.2524C34.1494 49.7328 34.7161 50.199 35.2985 50.6511C40.6343 54.7999 45.9033 56.4756 49.161 54.7704C52.5285 53.0085 53.6231 47.6781 52.2015 41.1931C52.0926 40.6978 51.967 40.1923 51.8249 39.6766C52.2225 39.5704 52.6117 39.4607 52.9927 39.3475C60.1855 37.193 64.8713 33.7093 64.8713 30.149C64.8687 26.729 60.4876 23.4258 53.7081 21.3161ZM36.8378 11.7543C41.4712 8.10912 45.8026 6.67038 47.7773 7.69873C49.8789 8.7943 50.6963 13.2119 49.3754 19.0058C49.2882 19.3832 49.1941 19.7594 49.093 20.1344C46.3278 19.5673 43.5238 19.167 40.6996 18.9363C39.0826 16.8358 37.31 14.8362 35.394 12.9513C35.863 12.5409 36.3434 12.1419 36.8352 11.7543H36.8378ZM20.6305 33.0536C21.1981 34.0442 21.7914 35.0227 22.4104 35.9889C23.0407 36.9748 23.6977 37.9461 24.3812 38.9029C22.4379 38.7124 20.5068 38.4318 18.5956 38.0621C19.1501 36.4441 19.8327 34.7636 20.6305 33.0536ZM20.6305 27.3541C19.8458 25.6807 19.1815 24.0344 18.6361 22.4447C20.4278 22.0826 22.3371 21.7866 24.3276 21.5625C23.6606 22.5013 23.0189 23.4537 22.4025 24.42C21.7861 25.3862 21.1941 26.3643 20.6266 27.3541H20.6305ZM22.056 30.2044C22.8825 28.6501 23.7726 27.1257 24.7265 25.6311C25.6794 24.1373 26.6938 22.6778 27.7696 21.2524C29.6372 21.125 31.5517 21.0578 33.4859 21.0578C35.4201 21.0578 37.3465 21.125 39.2127 21.2536C40.2772 22.6758 41.2855 24.1303 42.2376 25.617C43.1897 27.1037 44.0916 28.621 44.9434 30.1691C44.1029 31.7289 43.2032 33.2596 42.2441 34.7612C41.2929 36.255 40.2903 37.7189 39.2362 39.1529C37.3727 39.2709 35.4437 39.3357 33.482 39.3357C31.5204 39.3357 29.628 39.2803 27.7984 39.173C26.7147 37.7429 25.692 36.277 24.7304 34.7754C23.7687 33.2738 22.8759 31.7501 22.052 30.2044H22.056ZM44.5654 35.9724C45.1975 34.9833 45.8043 33.9813 46.3859 32.9664C47.183 34.5962 47.8867 36.262 48.494 37.9571C46.5603 38.3498 44.6051 38.6509 42.6365 38.8593C43.3008 37.9088 43.9438 36.9465 44.5654 35.9724ZM46.3597 27.3553C45.7808 26.3607 45.1788 25.378 44.5537 24.407C43.9434 23.4494 43.3074 22.5036 42.6456 21.5696C44.6478 21.7984 46.5689 22.1027 48.3698 22.4741C47.7908 24.1305 47.1199 25.7596 46.3597 27.3553ZM33.5121 14.6837C34.818 15.9704 36.051 17.3158 37.2066 18.7145C34.7349 18.6084 32.2614 18.6084 29.7862 18.7145C31.0064 17.2593 32.2553 15.909 33.5121 14.6837ZM19.052 7.77067C21.1523 6.67156 25.7962 8.24238 30.6912 12.1659C31.0038 12.4171 31.319 12.6801 31.6328 12.9525C29.7069 14.8372 27.9218 16.8349 26.2892 18.9327C23.4713 19.1617 20.6729 19.5556 17.9116 20.112C17.7521 19.5334 17.6082 18.9508 17.4801 18.3643C16.2965 12.9124 17.0799 8.80255 19.052 7.77067ZM15.9905 37.4713C15.4674 37.3368 14.9508 37.191 14.4408 37.0338C11.3806 36.0903 8.85265 34.8591 7.11723 33.5183C5.56359 32.3166 4.77631 31.1172 4.77631 30.1455C4.77631 28.0805 8.18438 25.446 13.868 23.6593C14.582 23.4353 15.3022 23.2305 16.0284 23.0449C16.8725 25.4911 17.8948 27.8844 19.0886 30.2092C17.8806 32.566 16.8457 34.992 15.9905 37.4713ZM30.5238 48.5177C28.0874 50.4424 25.6471 51.8068 23.4958 52.4943C21.5629 53.1111 20.0237 53.1288 19.0939 52.6441C17.1139 51.6122 16.29 47.6274 17.4134 42.2828C17.5468 41.6538 17.6993 41.0249 17.8711 40.3959C20.66 40.9377 23.4865 41.3076 26.3311 41.5033C27.9796 43.612 29.7795 45.6211 31.7191 47.5177C31.3294 47.8632 30.9305 48.1958 30.5238 48.5177ZM33.5866 45.7794C32.3155 44.54 31.0469 43.1685 29.8098 41.6943C31.0121 41.7368 32.2361 41.758 33.482 41.758C34.761 41.758 36.027 41.7333 37.2746 41.6825C36.1232 43.1038 34.8923 44.4712 33.5866 45.7794ZM49.8711 49.151C49.4971 50.9719 48.7451 52.1865 47.8153 52.6724C45.8366 53.7078 41.6059 52.3623 37.0444 48.8138C36.5213 48.4081 35.9982 47.9729 35.4659 47.5165C37.3678 45.6125 39.1255 43.5953 40.7271 41.4785C43.5874 41.26 46.4277 40.864 49.2277 40.2933C49.3558 40.7603 49.4692 41.2179 49.5677 41.666C50.1967 44.5317 50.287 47.1238 49.8711 49.151ZM52.1466 37.0467C51.804 37.1493 51.4509 37.2484 51.0925 37.3451C50.2146 34.8874 49.1524 32.4863 47.9133 30.1584C49.1059 27.8617 50.1265 25.4954 50.9683 23.0756C51.6104 23.2442 52.2342 23.4211 52.8345 23.6086C58.6437 25.4153 62.1877 28.09 62.1877 30.1455C62.1877 32.339 58.3599 35.1858 52.1466 37.0467Z" fill="#1C69FF"/>
<path d="M33.4835 35.2185C34.5973 35.2218 35.6871 34.927 36.615 34.3713C37.5428 33.8157 38.267 33.0243 38.6957 32.0973C39.1245 31.1703 39.2385 30.1495 39.0235 29.164C38.8084 28.1785 38.2739 27.2727 37.4876 26.5614C36.7013 25.85 35.6986 25.365 34.6064 25.1679C33.5143 24.9707 32.3818 25.0703 31.3525 25.4539C30.3231 25.8375 29.4431 26.4879 28.8239 27.3228C28.2047 28.1577 27.8742 29.1395 27.8742 30.1438C27.8727 30.8093 28.0166 31.4684 28.2977 32.0837C28.5788 32.6989 28.9916 33.2582 29.5126 33.7295C30.0335 34.2008 30.6523 34.5748 31.3337 34.8304C32.015 35.0859 32.7456 35.2178 33.4835 35.2185Z" fill="#1C69FF"/>
</svg>
