<svg width="66" height="60" viewBox="0 0 66 60" fill="none" xmlns="http://www.w3.org/2000/svg">
<g clip-path="url(#clip0_131_48)">
<path d="M57.9394 36.0441V0H8.53534V36.0441" stroke="url(#paint0_linear_131_48)" stroke-width="5"/>
<path fill-rule="evenodd" clip-rule="evenodd" d="M48.3535 36.0441H7.06061V45.2647H48.3535V36.0441ZM35.8182 41.0735C35.8182 42.4624 34.8278 43.5882 33.6061 43.5882C32.3843 43.5882 31.3939 42.4624 31.3939 41.0735C31.3939 39.6847 32.3843 38.5588 33.6061 38.5588C34.8278 38.5588 35.8182 39.6847 35.8182 41.0735Z" fill="#AA39E0"/>
<path d="M27.7071 44.4265H39.5051V44.4265C39.5051 46.9066 41.151 49.0855 43.5366 49.7634L46.8788 50.7133V52.8089H20.3333V50.7133L23.6756 49.7634C26.0612 49.0855 27.7071 46.9066 27.7071 44.4265V44.4265Z" fill="#AA39E0"/>
<path fill-rule="evenodd" clip-rule="evenodd" d="M48.303 26.8235H66V57H48.303V26.8235ZM50.5152 29.3382H63.7879V50.7132H50.5152V29.3382ZM58.7603 53.7994C58.7603 54.8095 58.04 55.6283 57.1515 55.6283C56.2629 55.6283 55.5426 54.8095 55.5426 53.7994C55.5426 52.7894 56.2629 51.9705 57.1515 51.9705C58.04 51.9705 58.7603 52.7894 58.7603 53.7994Z" fill="#AA39E0"/>
<rect opacity="0.1" x="5.42426" y="29.2345" width="8.70168" height="7.65464" transform="rotate(-90 5.42426 29.2345)" fill="#B7E038"/>
<rect opacity="0.1" x="1" y="16.2458" width="8.70168" height="7.65464" transform="rotate(-90 1 16.2458)" fill="#B7E038"/>
<rect opacity="0.4" x="15.3753" y="29.2345" width="8.70168" height="7.65464" transform="rotate(-90 15.3753 29.2345)" fill="#B7E038"/>
<rect opacity="0.4" x="10.951" y="16.2458" width="8.70168" height="7.65464" transform="rotate(-90 10.951 16.2458)" fill="#B7E038"/>
<rect opacity="0.7" x="25.3263" y="29.2345" width="8.70168" height="7.65464" transform="rotate(-90 25.3263 29.2345)" fill="#B7E038"/>
<rect opacity="0.7" x="20.9021" y="16.2458" width="8.70168" height="7.65464" transform="rotate(-90 20.9021 16.2458)" fill="#B7E038"/>
<rect x="35.2773" y="29.2345" width="8.70168" height="7.65464" transform="rotate(-90 35.2773 29.2345)" fill="#B7E038"/>
<rect x="30.8531" y="16.2458" width="8.70168" height="7.65464" transform="rotate(-90 30.8531 16.2458)" fill="#B7E038"/>
</g>
<defs>
<linearGradient id="paint0_linear_131_48" x1="33.2374" y1="0" x2="33.2374" y2="36.0441" gradientUnits="userSpaceOnUse">
<stop stop-color="#AA39E0"/>
<stop offset="1" stop-color="#AA00FA" stop-opacity="0"/>
</linearGradient>
<clipPath id="clip0_131_48">
<rect width="66" height="60" fill="white"/>
</clipPath>
</defs>
</svg>
