<svg width="67" height="59" viewBox="0 0 67 59" fill="none" xmlns="http://www.w3.org/2000/svg">
<g clip-path="url(#clip0_130_105)">
<path d="M66.9656 37.6518C66.7734 36.3159 65.9835 35.1572 64.6116 34.2035C64.5946 34.1857 64.5758 34.1692 64.5554 34.1542L64.4861 34.1116L64.4639 34.0981L63.7354 33.6499L63.7106 33.6342L63.6177 33.5781C63.5837 33.5611 63.5472 33.5479 63.5092 33.5389C61.2049 32.3633 57.3901 31.5396 51.5535 33.3047C50.1607 31.2964 50.0025 29.6872 50.9349 27.2217C51.101 26.7925 50.9467 26.509 50.4497 26.3252C49.4506 25.9609 48.0826 26.147 47.1123 26.3666C46.6598 26.4675 46.3878 26.6871 46.3015 27.02C45.6868 29.4854 43.9004 31.738 42.1728 33.9121L42.0708 34.0398C41.0063 32.1056 41.2273 30.6072 41.9688 28.7301C42.1166 28.3558 42.0002 28.107 41.5908 27.921C40.4478 27.4156 38.7333 27.763 38.0507 27.9356C37.1849 28.1519 36.2564 30.1567 35.2193 32.5572C34.9578 33.1612 34.7329 33.6779 34.5982 33.9188C34.2777 34.4792 33.9717 35.1179 33.6474 35.7959C32.915 37.3301 32.0898 39.0571 30.9102 40.1419C30.4813 39.3294 31.1561 38.0485 31.8113 36.8057C32.5868 35.3365 33.3191 33.948 32.4756 33.0615C32.3422 32.9214 32.1768 32.8061 31.9894 32.7228C31.8021 32.6396 31.5968 32.5901 31.3863 32.5774C31.1116 32.5595 30.8359 32.5979 30.582 32.6894C30.6696 32.0563 30.6735 31.5564 30.4577 30.9524C30.1491 30.0906 29.3474 29.6076 28.2437 29.6334C25.7301 29.6961 23.6037 31.3009 22.2606 32.6368C21.3661 33.5333 19.3835 34.2169 17.6428 34.8165C16.9549 35.0664 16.301 35.2905 15.7557 35.5146C14.886 34.8848 13.781 34.2494 12.617 33.5781C9.34759 31.6976 5.64266 29.565 5.51449 26.6737C5.3314 22.4028 11.0072 19.3736 15.961 17.2119C19.7156 15.5757 22.9799 14.4909 25.9407 13.8981C30.0994 13.0654 33.6121 13.2335 36.3793 14.3956C37.8938 15.0311 38.6026 16.4128 38.1527 17.8338C36.9757 21.5265 32.099 24.0569 27.9285 25.1955C25.4162 25.8814 23.278 26.1683 21.3896 26.0741C19.0225 25.9565 17.0896 24.9389 16.2631 24.5052C16.1307 24.4277 15.9907 24.3602 15.8446 24.3035L15.8067 24.2956C15.7319 24.2797 15.6533 24.2817 15.5797 24.3015C15.5062 24.3212 15.4403 24.358 15.3895 24.4077C15.2195 24.5814 15.2797 24.856 15.3411 24.9949C16.1454 26.7958 17.8063 27.9333 20.2767 28.376C21.0852 28.5147 21.9082 28.5819 22.7327 28.5766C28.5144 28.5766 35.8915 25.72 38.6013 23.3677C40.4492 21.7652 41.7949 20.1178 42.352 17.2769C42.9339 14.3015 40.5799 12.2339 38.1815 11.2813C32.3527 8.97608 25.7327 9.88719 21.2052 11.0572C15.9087 12.4255 10.4291 14.9134 6.17361 17.8854C0.926811 21.5466 -0.969466 24.9456 0.534477 27.9994C2.07896 31.1295 5.84536 33.0873 9.48752 34.9812C10.6645 35.592 11.784 36.1736 12.7923 36.7743C12.4889 36.9009 12.1789 37.0298 11.8638 37.1587C8.80617 38.4284 5.33794 39.8572 3.4142 42.2185C2.0175 43.9387 1.75594 45.6511 2.63738 47.3086C3.10818 48.1905 3.94516 48.789 5.10777 49.0871C5.71256 49.2339 6.33889 49.3052 6.96743 49.2989C9.2312 49.2989 11.7225 48.5144 13.0787 47.7893C15.4745 46.5006 17.0269 44.7703 17.6938 42.6466C18.2876 40.7571 18.145 38.88 17.2819 37.2046L20.2178 35.936C18.8015 39.9704 19.887 42.3799 21.0797 43.709C21.5191 44.1987 22.3116 44.4934 23.197 44.5069C24.0823 44.5203 24.8971 44.2346 25.3574 43.7482C26.2284 42.8237 26.8718 41.7422 27.4642 40.6608C27.4328 41.3668 27.4721 42.0818 27.7532 42.688C28.0056 43.2338 28.4215 43.5958 28.9577 43.7348C29.5279 43.8838 30.1962 43.7583 30.8396 43.3817C33.7389 41.6817 35.7215 37.6013 37.3144 34.3211C37.5407 33.8549 37.7577 33.4067 37.9683 32.9875C38.3624 34.1961 38.9106 35.3638 39.603 36.4695C39.7573 36.7093 39.7443 36.8146 39.535 37.0119C39.2198 37.3077 38.7804 37.6652 38.3149 38.044C36.9051 39.1904 35.15 40.6215 34.9146 41.88C34.8231 42.3843 35.2285 42.8438 35.8575 42.948C37.7499 43.2708 40.0294 42.799 41.957 41.6873C43.7094 40.6787 44.3686 39.2723 43.9187 37.5195C43.4832 35.8318 44.4771 33.7361 46.873 31.2864C47.2653 32.6906 47.7884 33.8258 48.5103 34.8198L48.4907 34.8333C46.7461 36.1389 44.3555 37.9263 44.7269 40.0948C44.758 40.3011 44.839 40.4994 44.9647 40.6774C45.0903 40.8553 45.2579 41.0088 45.4566 41.1281C45.669 41.251 45.9088 41.3349 46.1608 41.3746C46.4129 41.4144 46.6718 41.409 46.9213 41.3589C49.206 40.9476 50.9258 40.1195 52.176 38.8296C53.4262 37.5397 52.9698 36.1097 52.5487 35.0003C55.8181 34.2404 58.7293 34.2595 61.4547 35.0563C62.9848 35.5046 64.082 36.2408 64.715 37.2573C65.5114 38.536 65.0811 39.716 63.5 40.5801C63.0148 40.8457 62.7808 41.0082 62.7664 41.2132C62.7632 41.2608 62.7734 41.3084 62.7961 41.3519C62.8189 41.3954 62.8535 41.4336 62.8971 41.4632C63.0802 41.592 63.6452 41.8162 64.9229 41.127C66.0999 40.4938 66.7904 39.632 66.9669 38.5494C67.0025 38.251 67.002 37.9502 66.9656 37.6518ZM14.6899 40.4602L14.6768 40.6036C14.4728 42.2443 13.4998 43.6742 11.7801 44.8621C10.6998 45.6085 9.52676 46.0669 8.47792 46.1543C7.74556 46.2148 7.2133 46.1296 6.89681 45.8999C6.66011 45.7284 6.53325 45.4718 6.50448 45.1154C6.29001 42.26 11.5159 39.4224 14.4571 38.4889C14.667 39.1295 14.7457 39.7965 14.6899 40.4602ZM28.075 32.407C27.5911 34.7705 26.18 39.2319 23.962 40.9633C23.8561 41.0463 23.7671 41.0754 23.7266 41.0676C23.6861 41.0597 23.6547 41.0183 23.622 40.9555C22.8818 39.4852 23.1551 37.0018 24.2759 35.0507C25.1377 33.5468 26.3683 32.5505 27.7441 32.249C27.8012 32.2355 27.8601 32.2284 27.9193 32.2277C27.9657 32.2249 28.0117 32.2356 28.0501 32.258C28.0663 32.2799 28.0769 32.3045 28.0812 32.3302C28.0854 32.3559 28.0833 32.3821 28.075 32.407ZM38.9936 41.0227C38.5764 41.3959 38.0049 41.3455 38.1396 41.2088L40.2634 39.2767C40.0921 39.9413 39.586 40.4915 38.9936 41.0227ZM47.8041 39.3518C47.6021 39.4371 47.3836 39.4899 47.1594 39.5076C47.0992 38.4911 48.2487 37.3469 49.3826 36.5838C49.6873 37.6439 49.0635 38.7646 47.8041 39.3518Z" fill="#E97CFF"/>
</g>
<defs>
<clipPath id="clip0_130_105">
<rect width="66.9582" height="57.3783" fill="white" transform="translate(0.0360107 0.882629)"/>
</clipPath>
</defs>
</svg>
